<?xml version="1.0" encoding="utf-8" standalone="no"?>
<!DOCTYPE svg PUBLIC "-//W3C//DTD SVG 1.1//EN"
  "http://www.w3.org/Graphics/SVG/1.1/DTD/svg11.dtd">
<svg xmlns:xlink="http://www.w3.org/1999/xlink" width="368.368295pt" height="368.39952pt" viewBox="0 0 368.368295 368.39952" xmlns="http://www.w3.org/2000/svg" version="1.1">
 <metadata>
  <rdf:RDF xmlns:dc="http://purl.org/dc/elements/1.1/" xmlns:cc="http://creativecommons.org/ns#" xmlns:rdf="http://www.w3.org/1999/02/22-rdf-syntax-ns#">
   <cc:Work>
    <dc:type rdf:resource="http://purl.org/dc/dcmitype/StillImage"/>
    <dc:date>2023-12-16T01:53:58.898538</dc:date>
    <dc:format>image/svg+xml</dc:format>
    <dc:creator>
     <cc:Agent>
      <dc:title>Matplotlib v3.7.1, https://matplotlib.org/</dc:title>
     </cc:Agent>
    </dc:creator>
   </cc:Work>
  </rdf:RDF>
 </metadata>
 <defs>
  <style type="text/css">*{stroke-linejoin: round; stroke-linecap: butt}</style>
 </defs>
 <g id="figure_1">
  <g id="patch_1">
   <path d="M 0 368.39952 
L 368.368295 368.39952 
L 368.368295 0 
L 0 0 
z
" style="fill: #ffffff"/>
  </g>
  <g id="axes_1">
   <g id="patch_2">
    <path d="M 63.282973 317.20768 
L 358.720449 317.20768 
L 358.720449 24.17742 
L 63.282973 24.17742 
z
" style="fill: #ffffff"/>
   </g>
   <g id="matplotlib.axis_1">
    <g id="xtick_1">
     <g id="line2d_1">
      <defs>
       <path id="m8913e342c1" d="M 0 0 
L 0 -10 
" style="stroke: #000000"/>
      </defs>
      <g>
       <use xlink:href="#m8913e342c1" x="76.711949" y="317.20768" style="stroke: #000000"/>
      </g>
     </g>
     <g id="line2d_2">
      <defs>
       <path id="m58924c7951" d="M 0 0 
L 0 10 
" style="stroke: #000000"/>
      </defs>
      <g>
       <use xlink:href="#m58924c7951" x="76.711949" y="24.17742" style="stroke: #000000"/>
      </g>
     </g>
     <g id="text_1">
      <!-- $\mathdefault{0}$ -->
      <g transform="translate(72.809955 336.1851) scale(0.16 -0.16)">
       <defs>
        <path id="CMR17-30" d="M 2688 2025 
C 2688 2416 2682 3080 2413 3591 
C 2176 4039 1798 4198 1466 4198 
C 1158 4198 768 4058 525 3597 
C 269 3118 243 2524 243 2025 
C 243 1661 250 1106 448 619 
C 723 -39 1216 -128 1466 -128 
C 1760 -128 2208 -7 2470 600 
C 2662 1042 2688 1559 2688 2025 
z
M 1466 -26 
C 1056 -26 813 325 723 812 
C 653 1188 653 1738 653 2096 
C 653 2588 653 2997 736 3387 
C 858 3929 1216 4096 1466 4096 
C 1728 4096 2067 3923 2189 3400 
C 2272 3036 2278 2607 2278 2096 
C 2278 1680 2278 1169 2202 792 
C 2067 95 1690 -26 1466 -26 
z
" transform="scale(0.015625)"/>
       </defs>
       <use xlink:href="#CMR17-30" transform="scale(0.996264)"/>
      </g>
     </g>
    </g>
    <g id="xtick_2">
     <g id="line2d_3">
      <g>
       <use xlink:href="#m8913e342c1" x="130.481623" y="317.20768" style="stroke: #000000"/>
      </g>
     </g>
     <g id="line2d_4">
      <g>
       <use xlink:href="#m58924c7951" x="130.481623" y="24.17742" style="stroke: #000000"/>
      </g>
     </g>
     <g id="text_2">
      <!-- $\mathdefault{200}$ -->
      <g transform="translate(118.775643 336.1851) scale(0.16 -0.16)">
       <defs>
        <path id="CMR17-32" d="M 2669 989 
L 2554 989 
C 2490 536 2438 459 2413 420 
C 2381 369 1920 369 1830 369 
L 602 369 
C 832 619 1280 1072 1824 1597 
C 2214 1967 2669 2402 2669 3035 
C 2669 3790 2067 4224 1395 4224 
C 691 4224 262 3604 262 3030 
C 262 2780 448 2748 525 2748 
C 589 2748 781 2787 781 3010 
C 781 3207 614 3264 525 3264 
C 486 3264 448 3258 422 3245 
C 544 3790 915 4058 1306 4058 
C 1862 4058 2227 3617 2227 3035 
C 2227 2479 1901 2000 1536 1584 
L 262 146 
L 262 0 
L 2515 0 
L 2669 989 
z
" transform="scale(0.015625)"/>
       </defs>
       <use xlink:href="#CMR17-32" transform="scale(0.996264)"/>
       <use xlink:href="#CMR17-30" transform="translate(45.690477 0) scale(0.996264)"/>
       <use xlink:href="#CMR17-30" transform="translate(91.380954 0) scale(0.996264)"/>
      </g>
     </g>
    </g>
    <g id="xtick_3">
     <g id="line2d_5">
      <g>
       <use xlink:href="#m8913e342c1" x="184.251298" y="317.20768" style="stroke: #000000"/>
      </g>
     </g>
     <g id="line2d_6">
      <g>
       <use xlink:href="#m58924c7951" x="184.251298" y="24.17742" style="stroke: #000000"/>
      </g>
     </g>
     <g id="text_3">
      <!-- $\mathdefault{400}$ -->
      <g transform="translate(172.545317 336.1851) scale(0.16 -0.16)">
       <defs>
        <path id="CMR17-34" d="M 2150 4122 
C 2150 4256 2144 4256 2029 4256 
L 128 1254 
L 128 1088 
L 1779 1088 
L 1779 457 
C 1779 224 1766 160 1318 160 
L 1197 160 
L 1197 0 
C 1402 0 1747 0 1965 0 
C 2182 0 2528 0 2733 0 
L 2733 160 
L 2611 160 
C 2163 160 2150 224 2150 457 
L 2150 1088 
L 2803 1088 
L 2803 1254 
L 2150 1254 
L 2150 4122 
z
M 1798 3703 
L 1798 1254 
L 256 1254 
L 1798 3703 
z
" transform="scale(0.015625)"/>
       </defs>
       <use xlink:href="#CMR17-34" transform="scale(0.996264)"/>
       <use xlink:href="#CMR17-30" transform="translate(45.690477 0) scale(0.996264)"/>
       <use xlink:href="#CMR17-30" transform="translate(91.380954 0) scale(0.996264)"/>
      </g>
     </g>
    </g>
    <g id="xtick_4">
     <g id="line2d_7">
      <g>
       <use xlink:href="#m8913e342c1" x="238.020972" y="317.20768" style="stroke: #000000"/>
      </g>
     </g>
     <g id="line2d_8">
      <g>
       <use xlink:href="#m58924c7951" x="238.020972" y="24.17742" style="stroke: #000000"/>
      </g>
     </g>
     <g id="text_4">
      <!-- $\mathdefault{600}$ -->
      <g transform="translate(226.314992 336.1851) scale(0.16 -0.16)">
       <defs>
        <path id="CMR17-36" d="M 678 2176 
C 678 3690 1395 4032 1811 4032 
C 1946 4032 2272 4009 2400 3776 
C 2298 3776 2106 3776 2106 3553 
C 2106 3381 2246 3323 2336 3323 
C 2394 3323 2566 3348 2566 3560 
C 2566 3954 2246 4179 1805 4179 
C 1043 4179 243 3390 243 1984 
C 243 253 966 -128 1478 -128 
C 2099 -128 2688 427 2688 1283 
C 2688 2081 2170 2662 1517 2662 
C 1126 2662 838 2407 678 1960 
L 678 2176 
z
M 1478 25 
C 691 25 691 1200 691 1436 
C 691 1896 909 2560 1504 2560 
C 1613 2560 1926 2560 2138 2120 
C 2253 1870 2253 1609 2253 1289 
C 2253 944 2253 690 2118 434 
C 1978 171 1773 25 1478 25 
z
" transform="scale(0.015625)"/>
       </defs>
       <use xlink:href="#CMR17-36" transform="scale(0.996264)"/>
       <use xlink:href="#CMR17-30" transform="translate(45.690477 0) scale(0.996264)"/>
       <use xlink:href="#CMR17-30" transform="translate(91.380954 0) scale(0.996264)"/>
      </g>
     </g>
    </g>
    <g id="xtick_5">
     <g id="line2d_9">
      <g>
       <use xlink:href="#m8913e342c1" x="291.790647" y="317.20768" style="stroke: #000000"/>
      </g>
     </g>
     <g id="line2d_10">
      <g>
       <use xlink:href="#m58924c7951" x="291.790647" y="24.17742" style="stroke: #000000"/>
      </g>
     </g>
     <g id="text_5">
      <!-- $\mathdefault{800}$ -->
      <g transform="translate(280.084666 336.1851) scale(0.16 -0.16)">
       <defs>
        <path id="CMR17-38" d="M 1741 2264 
C 2144 2467 2554 2773 2554 3263 
C 2554 3841 1990 4179 1472 4179 
C 890 4179 378 3759 378 3180 
C 378 3021 416 2747 666 2505 
C 730 2442 998 2251 1171 2130 
C 883 1983 211 1634 211 934 
C 211 279 838 -128 1459 -128 
C 2144 -128 2720 362 2720 1010 
C 2720 1590 2330 1857 2074 2029 
L 1741 2264 
z
M 902 2822 
C 851 2854 595 3051 595 3351 
C 595 3739 998 4032 1459 4032 
C 1965 4032 2336 3676 2336 3262 
C 2336 2669 1670 2331 1638 2331 
C 1632 2331 1626 2331 1574 2370 
L 902 2822 
z
M 2080 1519 
C 2176 1449 2483 1240 2483 851 
C 2483 381 2010 25 1472 25 
C 890 25 448 438 448 940 
C 448 1443 838 1862 1280 2060 
L 2080 1519 
z
" transform="scale(0.015625)"/>
       </defs>
       <use xlink:href="#CMR17-38" transform="scale(0.996264)"/>
       <use xlink:href="#CMR17-30" transform="translate(45.690477 0) scale(0.996264)"/>
       <use xlink:href="#CMR17-30" transform="translate(91.380954 0) scale(0.996264)"/>
      </g>
     </g>
    </g>
    <g id="xtick_6">
     <g id="line2d_11">
      <g>
       <use xlink:href="#m8913e342c1" x="345.560321" y="317.20768" style="stroke: #000000"/>
      </g>
     </g>
     <g id="line2d_12">
      <g>
       <use xlink:href="#m58924c7951" x="345.560321" y="24.17742" style="stroke: #000000"/>
      </g>
     </g>
     <g id="text_6">
      <!-- $\mathdefault{1000}$ -->
      <g transform="translate(329.952347 336.1851) scale(0.16 -0.16)">
       <defs>
        <path id="CMR17-31" d="M 1702 4058 
C 1702 4192 1696 4192 1606 4192 
C 1357 3916 979 3827 621 3827 
C 602 3827 570 3827 563 3808 
C 557 3795 557 3782 557 3648 
C 755 3648 1088 3686 1344 3839 
L 1344 461 
C 1344 236 1331 160 781 160 
L 589 160 
L 589 0 
C 896 0 1216 0 1523 0 
C 1830 0 2150 0 2458 0 
L 2458 160 
L 2266 160 
C 1715 160 1702 230 1702 458 
L 1702 4058 
z
" transform="scale(0.015625)"/>
       </defs>
       <use xlink:href="#CMR17-31" transform="scale(0.996264)"/>
       <use xlink:href="#CMR17-30" transform="translate(45.690477 0) scale(0.996264)"/>
       <use xlink:href="#CMR17-30" transform="translate(91.380954 0) scale(0.996264)"/>
       <use xlink:href="#CMR17-30" transform="translate(137.071431 0) scale(0.996264)"/>
      </g>
     </g>
    </g>
    <g id="xtick_7">
     <g id="line2d_13">
      <defs>
       <path id="m4470d28193" d="M 0 0 
L 0 -5 
" style="stroke: #000000"/>
      </defs>
      <g>
       <use xlink:href="#m4470d28193" x="90.154367" y="317.20768" style="stroke: #000000"/>
      </g>
     </g>
     <g id="line2d_14">
      <defs>
       <path id="m0dace3bff3" d="M 0 0 
L 0 5 
" style="stroke: #000000"/>
      </defs>
      <g>
       <use xlink:href="#m0dace3bff3" x="90.154367" y="24.17742" style="stroke: #000000"/>
      </g>
     </g>
    </g>
    <g id="xtick_8">
     <g id="line2d_15">
      <g>
       <use xlink:href="#m4470d28193" x="103.596786" y="317.20768" style="stroke: #000000"/>
      </g>
     </g>
     <g id="line2d_16">
      <g>
       <use xlink:href="#m0dace3bff3" x="103.596786" y="24.17742" style="stroke: #000000"/>
      </g>
     </g>
    </g>
    <g id="xtick_9">
     <g id="line2d_17">
      <g>
       <use xlink:href="#m4470d28193" x="117.039205" y="317.20768" style="stroke: #000000"/>
      </g>
     </g>
     <g id="line2d_18">
      <g>
       <use xlink:href="#m0dace3bff3" x="117.039205" y="24.17742" style="stroke: #000000"/>
      </g>
     </g>
    </g>
    <g id="xtick_10">
     <g id="line2d_19">
      <g>
       <use xlink:href="#m4470d28193" x="143.924042" y="317.20768" style="stroke: #000000"/>
      </g>
     </g>
     <g id="line2d_20">
      <g>
       <use xlink:href="#m0dace3bff3" x="143.924042" y="24.17742" style="stroke: #000000"/>
      </g>
     </g>
    </g>
    <g id="xtick_11">
     <g id="line2d_21">
      <g>
       <use xlink:href="#m4470d28193" x="157.366461" y="317.20768" style="stroke: #000000"/>
      </g>
     </g>
     <g id="line2d_22">
      <g>
       <use xlink:href="#m0dace3bff3" x="157.366461" y="24.17742" style="stroke: #000000"/>
      </g>
     </g>
    </g>
    <g id="xtick_12">
     <g id="line2d_23">
      <g>
       <use xlink:href="#m4470d28193" x="170.808879" y="317.20768" style="stroke: #000000"/>
      </g>
     </g>
     <g id="line2d_24">
      <g>
       <use xlink:href="#m0dace3bff3" x="170.808879" y="24.17742" style="stroke: #000000"/>
      </g>
     </g>
    </g>
    <g id="xtick_13">
     <g id="line2d_25">
      <g>
       <use xlink:href="#m4470d28193" x="197.693716" y="317.20768" style="stroke: #000000"/>
      </g>
     </g>
     <g id="line2d_26">
      <g>
       <use xlink:href="#m0dace3bff3" x="197.693716" y="24.17742" style="stroke: #000000"/>
      </g>
     </g>
    </g>
    <g id="xtick_14">
     <g id="line2d_27">
      <g>
       <use xlink:href="#m4470d28193" x="211.136135" y="317.20768" style="stroke: #000000"/>
      </g>
     </g>
     <g id="line2d_28">
      <g>
       <use xlink:href="#m0dace3bff3" x="211.136135" y="24.17742" style="stroke: #000000"/>
      </g>
     </g>
    </g>
    <g id="xtick_15">
     <g id="line2d_29">
      <g>
       <use xlink:href="#m4470d28193" x="224.578554" y="317.20768" style="stroke: #000000"/>
      </g>
     </g>
     <g id="line2d_30">
      <g>
       <use xlink:href="#m0dace3bff3" x="224.578554" y="24.17742" style="stroke: #000000"/>
      </g>
     </g>
    </g>
    <g id="xtick_16">
     <g id="line2d_31">
      <g>
       <use xlink:href="#m4470d28193" x="251.463391" y="317.20768" style="stroke: #000000"/>
      </g>
     </g>
     <g id="line2d_32">
      <g>
       <use xlink:href="#m0dace3bff3" x="251.463391" y="24.17742" style="stroke: #000000"/>
      </g>
     </g>
    </g>
    <g id="xtick_17">
     <g id="line2d_33">
      <g>
       <use xlink:href="#m4470d28193" x="264.90581" y="317.20768" style="stroke: #000000"/>
      </g>
     </g>
     <g id="line2d_34">
      <g>
       <use xlink:href="#m0dace3bff3" x="264.90581" y="24.17742" style="stroke: #000000"/>
      </g>
     </g>
    </g>
    <g id="xtick_18">
     <g id="line2d_35">
      <g>
       <use xlink:href="#m4470d28193" x="278.348228" y="317.20768" style="stroke: #000000"/>
      </g>
     </g>
     <g id="line2d_36">
      <g>
       <use xlink:href="#m0dace3bff3" x="278.348228" y="24.17742" style="stroke: #000000"/>
      </g>
     </g>
    </g>
    <g id="xtick_19">
     <g id="line2d_37">
      <g>
       <use xlink:href="#m4470d28193" x="305.233065" y="317.20768" style="stroke: #000000"/>
      </g>
     </g>
     <g id="line2d_38">
      <g>
       <use xlink:href="#m0dace3bff3" x="305.233065" y="24.17742" style="stroke: #000000"/>
      </g>
     </g>
    </g>
    <g id="xtick_20">
     <g id="line2d_39">
      <g>
       <use xlink:href="#m4470d28193" x="318.675484" y="317.20768" style="stroke: #000000"/>
      </g>
     </g>
     <g id="line2d_40">
      <g>
       <use xlink:href="#m0dace3bff3" x="318.675484" y="24.17742" style="stroke: #000000"/>
      </g>
     </g>
    </g>
    <g id="xtick_21">
     <g id="line2d_41">
      <g>
       <use xlink:href="#m4470d28193" x="332.117903" y="317.20768" style="stroke: #000000"/>
      </g>
     </g>
     <g id="line2d_42">
      <g>
       <use xlink:href="#m0dace3bff3" x="332.117903" y="24.17742" style="stroke: #000000"/>
      </g>
     </g>
    </g>
    <g id="text_7">
     <!-- Time (arb. units) -->
     <g transform="translate(152.380256 357.225698) scale(0.16 -0.16)">
      <defs>
       <path id="SFRM3583-54" d="M 301 4365 
L 205 2974 
L 288 2974 
C 307 3340 320 3839 576 4045 
C 787 4224 1075 4224 1331 4224 
L 1715 4224 
C 1830 4224 1920 4192 1920 4025 
C 1920 3986 1914 3941 1914 3903 
L 1914 538 
C 1914 500 1920 448 1920 404 
C 1920 167 1722 141 1523 141 
L 1338 141 
L 1338 0 
L 2803 0 
L 2803 141 
L 2605 141 
C 2400 141 2221 167 2221 404 
C 2221 448 2227 500 2227 539 
L 2227 3903 
C 2227 3940 2221 3983 2221 4020 
C 2221 4180 2310 4211 2426 4211 
L 2810 4211 
C 3200 4211 3661 4211 3776 3631 
C 3821 3419 3840 3193 3853 2974 
L 3936 2974 
L 3840 4365 
L 301 4365 
z
" transform="scale(0.015625)"/>
       <path id="SFRM3583-69" d="M 326 2735 
L 326 2593 
L 358 2593 
C 563 2593 678 2561 678 2251 
L 678 360 
C 678 154 531 141 307 141 
L 307 0 
L 1274 0 
L 1274 141 
L 1190 141 
C 1056 141 934 154 934 373 
L 934 2805 
L 326 2735 
z
M 698 4160 
C 595 4160 531 4045 531 3962 
C 531 3866 608 3751 730 3751 
C 858 3751 934 3857 934 3952 
C 934 4046 858 4160 736 4160 
C 723 4160 710 4160 698 4160 
z
" transform="scale(0.015625)"/>
       <path id="SFRM3583-6d" d="M 301 2746 
L 301 2605 
L 365 2605 
C 570 2605 678 2560 678 2275 
L 678 361 
C 678 154 525 141 301 141 
L 301 0 
L 1318 0 
L 1318 141 
L 1229 141 
C 1082 141 941 160 941 361 
L 941 1259 
C 941 1376 934 1485 934 1603 
C 934 2067 1088 2740 1715 2740 
C 2112 2740 2272 2430 2272 1951 
L 2272 361 
C 2272 154 2118 141 1894 141 
L 1894 0 
L 2912 0 
L 2912 141 
L 2822 141 
C 2675 141 2534 160 2534 361 
L 2534 1259 
C 2534 1376 2528 1485 2528 1603 
C 2528 2067 2682 2740 3309 2740 
C 3706 2740 3866 2430 3866 1951 
L 3866 361 
C 3866 154 3712 141 3488 141 
L 3488 0 
L 4506 0 
L 4506 141 
L 4403 141 
C 4256 141 4128 160 4128 386 
L 4128 1860 
C 4128 2292 4058 2816 3354 2816 
C 2957 2816 2611 2526 2534 2146 
L 2528 2146 
C 2470 2487 2323 2816 1760 2816 
C 1357 2816 998 2494 934 2120 
L 928 2816 
L 301 2746 
z
" transform="scale(0.015625)"/>
       <path id="SFRM3583-65" d="M 563 1524 
L 2246 1524 
C 2259 1524 2285 1517 2310 1517 
C 2355 1517 2374 1543 2374 1581 
C 2374 2154 2099 2816 1382 2816 
C 614 2816 237 2031 237 1405 
C 237 778 589 70 1350 -26 
C 1376 -26 1402 -32 1427 -32 
C 1869 -32 2208 273 2355 686 
C 2362 705 2368 730 2368 749 
C 2368 768 2362 787 2336 787 
C 2272 787 2266 686 2246 628 
C 2118 324 1843 57 1485 57 
C 1216 57 960 210 813 425 
C 576 742 563 1149 563 1524 
z
M 570 1600 
C 582 2103 832 2740 1370 2740 
C 1818 2740 2010 2264 2061 1890 
C 2067 1793 2067 1697 2080 1600 
L 570 1600 
z
" transform="scale(0.015625)"/>
       <path id="SFRM3583-28" d="M 1837 4768 
C 1747 4717 1645 4608 1574 4519 
C 845 3725 595 2618 595 1568 
C 595 551 851 -512 1523 -1293 
C 1619 -1395 1786 -1600 1869 -1600 
C 1882 -1600 1894 -1593 1894 -1581 
C 1894 -1542 1709 -1363 1619 -1254 
C 1011 -467 813 576 813 1555 
C 813 2669 1030 3783 1805 4647 
C 1830 4672 1882 4711 1894 4749 
L 1894 4755 
C 1894 4768 1882 4775 1869 4775 
C 1856 4775 1843 4768 1837 4768 
z
" transform="scale(0.015625)"/>
       <path id="SFRM3583-61" d="M 576 2080 
C 659 2413 883 2740 1274 2740 
C 1619 2740 1869 2415 1920 2101 
C 1933 2018 1933 1928 1933 1846 
L 1933 1597 
C 1318 1597 474 1456 320 686 
C 314 647 314 603 314 564 
C 314 134 800 -32 1133 -32 
C 1446 -32 1856 177 1939 535 
L 1946 535 
C 1946 268 2125 0 2394 0 
C 2746 0 2829 376 2829 650 
L 2829 936 
L 2746 936 
L 2746 612 
C 2746 408 2701 115 2470 115 
C 2208 115 2195 453 2195 625 
L 2195 1810 
C 2195 1969 2189 2134 2125 2288 
C 1990 2599 1638 2816 1293 2816 
C 800 2816 480 2386 480 1918 
C 480 1798 570 1728 672 1728 
C 774 1728 858 1811 858 1914 
C 858 2010 794 2099 672 2099 
C 640 2099 608 2093 576 2080 
z
M 1933 1527 
L 1933 898 
C 1933 475 1670 77 1229 45 
L 1190 45 
C 896 45 627 276 627 590 
C 627 1257 1363 1527 1933 1527 
z
" transform="scale(0.015625)"/>
       <path id="SFRM3583-72" d="M 288 2746 
L 288 2605 
L 352 2605 
C 557 2605 666 2560 666 2275 
L 666 361 
C 666 154 512 141 288 141 
L 288 0 
L 1389 0 
L 1389 141 
L 1261 141 
C 1075 141 922 160 922 407 
L 922 1350 
C 922 1900 1037 2740 1658 2740 
C 1728 2740 1798 2721 1862 2695 
C 1786 2663 1722 2611 1722 2520 
C 1722 2430 1792 2339 1901 2339 
C 1997 2339 2074 2423 2074 2519 
C 2074 2732 1837 2816 1664 2816 
C 1274 2816 979 2435 922 2080 
L 915 2816 
L 288 2746 
z
" transform="scale(0.015625)"/>
       <path id="SFRM3583-62" d="M 288 4365 
L 288 4224 
L 365 4224 
C 570 4224 666 4147 666 3930 
L 666 7 
L 749 20 
L 896 522 
C 1114 239 1267 -32 1722 -32 
C 2445 -32 2912 703 2912 1412 
C 2912 2062 2515 2745 1862 2816 
L 1805 2816 
C 1459 2816 1088 2629 928 2302 
L 922 4435 
L 288 4365 
z
M 2579 1244 
C 2554 941 2509 631 2317 380 
C 2157 180 1926 45 1677 45 
C 1280 45 928 445 928 754 
L 928 1799 
C 928 1870 922 1934 922 2005 
C 922 2391 1357 2740 1741 2740 
C 2458 2740 2586 1831 2586 1386 
C 2586 1341 2586 1289 2579 1244 
z
" transform="scale(0.015625)"/>
       <path id="SFRM3583-2e" d="M 762 410 
C 659 410 595 295 595 212 
C 595 116 672 0 794 0 
C 922 0 1005 107 1005 202 
C 1005 291 928 410 800 410 
C 787 410 774 410 762 410 
z
" transform="scale(0.015625)"/>
       <path id="SFRM3583-75" d="M 301 2732 
L 301 2592 
L 358 2592 
C 570 2592 685 2560 685 2181 
C 685 2098 678 2015 678 1930 
L 678 904 
C 678 443 762 -32 1459 -32 
C 1856 -32 2170 248 2266 620 
L 2272 0 
L 2906 0 
L 2906 160 
L 2842 160 
C 2675 160 2528 179 2528 447 
L 2528 2803 
L 1888 2732 
L 1888 2592 
L 1958 2592 
C 2176 2592 2266 2521 2266 2258 
L 2266 1077 
C 2266 609 2042 45 1491 45 
C 1318 45 1133 102 1030 250 
C 947 366 941 526 941 673 
L 941 2803 
L 301 2732 
z
" transform="scale(0.015625)"/>
       <path id="SFRM3583-6e" d="M 301 2746 
L 301 2605 
L 365 2605 
C 570 2605 678 2560 678 2275 
L 678 361 
C 678 154 525 141 301 141 
L 301 0 
L 1318 0 
L 1318 141 
L 1229 141 
C 1082 141 941 160 941 361 
L 941 1777 
C 979 2217 1203 2740 1709 2740 
C 2112 2740 2266 2417 2266 1951 
L 2266 361 
C 2266 154 2112 141 1888 141 
L 1888 0 
L 2906 0 
L 2906 141 
L 2803 141 
C 2656 141 2528 160 2528 386 
L 2528 1885 
C 2528 2299 2451 2816 1760 2816 
C 1414 2816 1178 2629 1024 2352 
C 986 2281 947 2204 934 2126 
L 928 2816 
L 301 2746 
z
" transform="scale(0.015625)"/>
       <path id="SFRM3583-74" d="M 845 3936 
C 845 3572 762 2688 109 2688 
L 109 2612 
L 666 2612 
L 666 1136 
C 666 1048 659 945 659 849 
C 659 453 787 -32 1318 -32 
C 1811 -32 1907 511 1907 907 
L 1907 1155 
L 1824 1155 
C 1824 1059 1830 964 1830 862 
C 1830 575 1773 51 1376 51 
C 1005 51 922 505 922 849 
C 922 958 928 1060 928 1168 
L 928 2612 
L 1811 2612 
L 1811 2752 
L 928 2752 
L 928 3936 
L 845 3936 
z
" transform="scale(0.015625)"/>
       <path id="SFRM3583-73" d="M 422 384 
C 576 141 781 -32 1126 -32 
C 1549 -32 2067 147 2067 764 
C 2067 1071 1901 1353 1600 1501 
C 1216 1694 538 1604 384 2085 
C 371 2123 365 2168 365 2213 
C 365 2592 749 2752 1094 2752 
C 1466 2752 1786 2539 1837 1937 
C 1843 1905 1837 1822 1882 1822 
C 1920 1822 1926 1854 1926 1893 
L 1926 2758 
C 1926 2784 1926 2816 1901 2816 
C 1869 2816 1766 2636 1734 2540 
C 1562 2722 1376 2816 1120 2816 
C 730 2816 192 2688 192 2108 
C 192 1424 1030 1424 1408 1289 
C 1670 1200 1894 975 1894 686 
L 1894 673 
C 1882 269 1568 45 1139 45 
C 544 45 371 604 294 1065 
C 288 1104 288 1181 237 1181 
C 198 1181 192 1155 192 1123 
L 192 26 
C 192 6 192 -19 211 -26 
L 218 -26 
C 262 -26 371 256 422 384 
z
" transform="scale(0.015625)"/>
       <path id="SFRM3583-29" d="M 333 4781 
C 333 4781 326 4781 326 4774 
C 326 4742 518 4563 608 4448 
C 1210 3661 1414 2637 1414 1658 
C 1414 557 1216 -576 422 -1453 
C 397 -1478 346 -1517 333 -1555 
L 333 -1562 
C 333 -1574 339 -1574 352 -1574 
C 448 -1574 570 -1414 659 -1318 
C 1395 -493 1632 576 1632 1632 
C 1632 2739 1318 4000 442 4749 
C 429 4762 390 4794 358 4794 
C 346 4794 339 4787 333 4781 
z
" transform="scale(0.015625)"/>
      </defs>
      <use xlink:href="#SFRM3583-54" transform="scale(0.996264)"/>
      <use xlink:href="#SFRM3583-69" transform="translate(64.418587 0) scale(0.996264)"/>
      <use xlink:href="#SFRM3583-6d" transform="translate(89.156918 0) scale(0.996264)"/>
      <use xlink:href="#SFRM3583-65" transform="translate(163.495534 0) scale(0.996264)"/>
      <use xlink:href="#SFRM3583-28" transform="translate(232.812226 0) scale(0.996264)"/>
      <use xlink:href="#SFRM3583-61" transform="translate(267.470572 0) scale(0.996264)"/>
      <use xlink:href="#SFRM3583-72" transform="translate(312.049039 0) scale(0.996264)"/>
      <use xlink:href="#SFRM3583-62" transform="translate(346.707385 0) scale(0.996264)"/>
      <use xlink:href="#SFRM3583-2e" transform="translate(396.245813 0) scale(0.996264)"/>
      <use xlink:href="#SFRM3583-75" transform="translate(460.602453 0) scale(0.996264)"/>
      <use xlink:href="#SFRM3583-6e" transform="translate(510.140881 0) scale(0.996264)"/>
      <use xlink:href="#SFRM3583-69" transform="translate(559.679309 0) scale(0.996264)"/>
      <use xlink:href="#SFRM3583-74" transform="translate(584.417641 0) scale(0.996264)"/>
      <use xlink:href="#SFRM3583-73" transform="translate(619.075987 0) scale(0.996264)"/>
      <use xlink:href="#SFRM3583-29" transform="translate(654.230382 0) scale(0.996264)"/>
     </g>
    </g>
   </g>
   <g id="matplotlib.axis_2">
    <g id="ytick_1">
     <g id="line2d_43">
      <defs>
       <path id="m80028247a6" d="M 0 0 
L 10 0 
" style="stroke: #000000"/>
      </defs>
      <g>
       <use xlink:href="#m80028247a6" x="63.282973" y="280.966219" style="stroke: #000000"/>
      </g>
     </g>
     <g id="line2d_44">
      <defs>
       <path id="m282b0d7fb1" d="M 0 0 
L -10 0 
" style="stroke: #000000"/>
      </defs>
      <g>
       <use xlink:href="#m282b0d7fb1" x="358.720449" y="280.966219" style="stroke: #000000"/>
      </g>
     </g>
     <g id="text_8">
      <!-- $\mathdefault{−80}$ -->
      <g transform="translate(27.277003 286.454929) scale(0.16 -0.16)">
       <defs>
        <path id="CMSY10-0" d="M 4218 1472 
C 4326 1472 4442 1472 4442 1600 
C 4442 1728 4326 1728 4218 1728 
L 755 1728 
C 646 1728 531 1728 531 1600 
C 531 1472 646 1472 755 1472 
L 4218 1472 
z
" transform="scale(0.015625)"/>
       </defs>
       <use xlink:href="#CMSY10-0" transform="scale(0.996264)"/>
       <use xlink:href="#CMR17-38" transform="translate(77.487468 0) scale(0.996264)"/>
       <use xlink:href="#CMR17-30" transform="translate(123.177945 0) scale(0.996264)"/>
      </g>
     </g>
    </g>
    <g id="ytick_2">
     <g id="line2d_45">
      <g>
       <use xlink:href="#m80028247a6" x="63.282973" y="225.991717" style="stroke: #000000"/>
      </g>
     </g>
     <g id="line2d_46">
      <g>
       <use xlink:href="#m282b0d7fb1" x="358.720449" y="225.991717" style="stroke: #000000"/>
      </g>
     </g>
     <g id="text_9">
      <!-- $\mathdefault{−60}$ -->
      <g transform="translate(27.277003 231.480427) scale(0.16 -0.16)">
       <use xlink:href="#CMSY10-0" transform="scale(0.996264)"/>
       <use xlink:href="#CMR17-36" transform="translate(77.487468 0) scale(0.996264)"/>
       <use xlink:href="#CMR17-30" transform="translate(123.177945 0) scale(0.996264)"/>
      </g>
     </g>
    </g>
    <g id="ytick_3">
     <g id="line2d_47">
      <g>
       <use xlink:href="#m80028247a6" x="63.282973" y="171.017215" style="stroke: #000000"/>
      </g>
     </g>
     <g id="line2d_48">
      <g>
       <use xlink:href="#m282b0d7fb1" x="358.720449" y="171.017215" style="stroke: #000000"/>
      </g>
     </g>
     <g id="text_10">
      <!-- $\mathdefault{−40}$ -->
      <g transform="translate(27.277003 176.505925) scale(0.16 -0.16)">
       <use xlink:href="#CMSY10-0" transform="scale(0.996264)"/>
       <use xlink:href="#CMR17-34" transform="translate(77.487468 0) scale(0.996264)"/>
       <use xlink:href="#CMR17-30" transform="translate(123.177945 0) scale(0.996264)"/>
      </g>
     </g>
    </g>
    <g id="ytick_4">
     <g id="line2d_49">
      <g>
       <use xlink:href="#m80028247a6" x="63.282973" y="116.042713" style="stroke: #000000"/>
      </g>
     </g>
     <g id="line2d_50">
      <g>
       <use xlink:href="#m282b0d7fb1" x="358.720449" y="116.042713" style="stroke: #000000"/>
      </g>
     </g>
     <g id="text_11">
      <!-- $\mathdefault{−20}$ -->
      <g transform="translate(27.277003 121.531422) scale(0.16 -0.16)">
       <use xlink:href="#CMSY10-0" transform="scale(0.996264)"/>
       <use xlink:href="#CMR17-32" transform="translate(77.487468 0) scale(0.996264)"/>
       <use xlink:href="#CMR17-30" transform="translate(123.177945 0) scale(0.996264)"/>
      </g>
     </g>
    </g>
    <g id="ytick_5">
     <g id="line2d_51">
      <g>
       <use xlink:href="#m80028247a6" x="63.282973" y="61.06821" style="stroke: #000000"/>
      </g>
     </g>
     <g id="line2d_52">
      <g>
       <use xlink:href="#m282b0d7fb1" x="358.720449" y="61.06821" style="stroke: #000000"/>
      </g>
     </g>
     <g id="text_12">
      <!-- $\mathdefault{0}$ -->
      <g transform="translate(47.478986 66.55692) scale(0.16 -0.16)">
       <use xlink:href="#CMR17-30" transform="scale(0.996264)"/>
      </g>
     </g>
    </g>
    <g id="ytick_6">
     <g id="line2d_53">
      <defs>
       <path id="m7325b5c7cd" d="M 0 0 
L 5 0 
" style="stroke: #000000"/>
      </defs>
      <g>
       <use xlink:href="#m7325b5c7cd" x="63.282973" y="308.453471" style="stroke: #000000"/>
      </g>
     </g>
     <g id="line2d_54">
      <defs>
       <path id="m36db36ade2" d="M 0 0 
L -5 0 
" style="stroke: #000000"/>
      </defs>
      <g>
       <use xlink:href="#m36db36ade2" x="358.720449" y="308.453471" style="stroke: #000000"/>
      </g>
     </g>
    </g>
    <g id="ytick_7">
     <g id="line2d_55">
      <g>
       <use xlink:href="#m7325b5c7cd" x="63.282973" y="294.709845" style="stroke: #000000"/>
      </g>
     </g>
     <g id="line2d_56">
      <g>
       <use xlink:href="#m36db36ade2" x="358.720449" y="294.709845" style="stroke: #000000"/>
      </g>
     </g>
    </g>
    <g id="ytick_8">
     <g id="line2d_57">
      <g>
       <use xlink:href="#m7325b5c7cd" x="63.282973" y="267.222594" style="stroke: #000000"/>
      </g>
     </g>
     <g id="line2d_58">
      <g>
       <use xlink:href="#m36db36ade2" x="358.720449" y="267.222594" style="stroke: #000000"/>
      </g>
     </g>
    </g>
    <g id="ytick_9">
     <g id="line2d_59">
      <g>
       <use xlink:href="#m7325b5c7cd" x="63.282973" y="253.478968" style="stroke: #000000"/>
      </g>
     </g>
     <g id="line2d_60">
      <g>
       <use xlink:href="#m36db36ade2" x="358.720449" y="253.478968" style="stroke: #000000"/>
      </g>
     </g>
    </g>
    <g id="ytick_10">
     <g id="line2d_61">
      <g>
       <use xlink:href="#m7325b5c7cd" x="63.282973" y="239.735343" style="stroke: #000000"/>
      </g>
     </g>
     <g id="line2d_62">
      <g>
       <use xlink:href="#m36db36ade2" x="358.720449" y="239.735343" style="stroke: #000000"/>
      </g>
     </g>
    </g>
    <g id="ytick_11">
     <g id="line2d_63">
      <g>
       <use xlink:href="#m7325b5c7cd" x="63.282973" y="212.248092" style="stroke: #000000"/>
      </g>
     </g>
     <g id="line2d_64">
      <g>
       <use xlink:href="#m36db36ade2" x="358.720449" y="212.248092" style="stroke: #000000"/>
      </g>
     </g>
    </g>
    <g id="ytick_12">
     <g id="line2d_65">
      <g>
       <use xlink:href="#m7325b5c7cd" x="63.282973" y="198.504466" style="stroke: #000000"/>
      </g>
     </g>
     <g id="line2d_66">
      <g>
       <use xlink:href="#m36db36ade2" x="358.720449" y="198.504466" style="stroke: #000000"/>
      </g>
     </g>
    </g>
    <g id="ytick_13">
     <g id="line2d_67">
      <g>
       <use xlink:href="#m7325b5c7cd" x="63.282973" y="184.76084" style="stroke: #000000"/>
      </g>
     </g>
     <g id="line2d_68">
      <g>
       <use xlink:href="#m36db36ade2" x="358.720449" y="184.76084" style="stroke: #000000"/>
      </g>
     </g>
    </g>
    <g id="ytick_14">
     <g id="line2d_69">
      <g>
       <use xlink:href="#m7325b5c7cd" x="63.282973" y="157.273589" style="stroke: #000000"/>
      </g>
     </g>
     <g id="line2d_70">
      <g>
       <use xlink:href="#m36db36ade2" x="358.720449" y="157.273589" style="stroke: #000000"/>
      </g>
     </g>
    </g>
    <g id="ytick_15">
     <g id="line2d_71">
      <g>
       <use xlink:href="#m7325b5c7cd" x="63.282973" y="143.529964" style="stroke: #000000"/>
      </g>
     </g>
     <g id="line2d_72">
      <g>
       <use xlink:href="#m36db36ade2" x="358.720449" y="143.529964" style="stroke: #000000"/>
      </g>
     </g>
    </g>
    <g id="ytick_16">
     <g id="line2d_73">
      <g>
       <use xlink:href="#m7325b5c7cd" x="63.282973" y="129.786338" style="stroke: #000000"/>
      </g>
     </g>
     <g id="line2d_74">
      <g>
       <use xlink:href="#m36db36ade2" x="358.720449" y="129.786338" style="stroke: #000000"/>
      </g>
     </g>
    </g>
    <g id="ytick_17">
     <g id="line2d_75">
      <g>
       <use xlink:href="#m7325b5c7cd" x="63.282973" y="102.299087" style="stroke: #000000"/>
      </g>
     </g>
     <g id="line2d_76">
      <g>
       <use xlink:href="#m36db36ade2" x="358.720449" y="102.299087" style="stroke: #000000"/>
      </g>
     </g>
    </g>
    <g id="ytick_18">
     <g id="line2d_77">
      <g>
       <use xlink:href="#m7325b5c7cd" x="63.282973" y="88.555461" style="stroke: #000000"/>
      </g>
     </g>
     <g id="line2d_78">
      <g>
       <use xlink:href="#m36db36ade2" x="358.720449" y="88.555461" style="stroke: #000000"/>
      </g>
     </g>
    </g>
    <g id="ytick_19">
     <g id="line2d_79">
      <g>
       <use xlink:href="#m7325b5c7cd" x="63.282973" y="74.811836" style="stroke: #000000"/>
      </g>
     </g>
     <g id="line2d_80">
      <g>
       <use xlink:href="#m36db36ade2" x="358.720449" y="74.811836" style="stroke: #000000"/>
      </g>
     </g>
    </g>
    <g id="ytick_20">
     <g id="line2d_81">
      <g>
       <use xlink:href="#m7325b5c7cd" x="63.282973" y="47.324585" style="stroke: #000000"/>
      </g>
     </g>
     <g id="line2d_82">
      <g>
       <use xlink:href="#m36db36ade2" x="358.720449" y="47.324585" style="stroke: #000000"/>
      </g>
     </g>
    </g>
    <g id="ytick_21">
     <g id="line2d_83">
      <g>
       <use xlink:href="#m7325b5c7cd" x="63.282973" y="33.580959" style="stroke: #000000"/>
      </g>
     </g>
     <g id="line2d_84">
      <g>
       <use xlink:href="#m36db36ade2" x="358.720449" y="33.580959" style="stroke: #000000"/>
      </g>
     </g>
    </g>
    <g id="text_13">
     <!-- Amplitude -->
     <g transform="translate(18.17742 205.885353) rotate(-90) scale(0.16 -0.16)">
      <defs>
       <path id="SFRM3583-41" d="M 166 141 
L 166 0 
L 998 0 
L 998 141 
C 858 141 749 258 749 402 
L 749 434 
C 762 541 813 644 851 746 
C 947 995 1024 1242 1120 1485 
C 1139 1536 1139 1600 1222 1600 
L 2906 1600 
C 2925 1492 2976 1383 3014 1282 
L 3245 651 
C 3283 542 3360 396 3360 300 
C 3360 141 3168 141 3066 141 
L 3066 0 
L 4128 0 
L 4128 141 
L 4026 141 
C 3776 141 3725 244 3654 423 
C 3232 1703 2726 2964 2285 4237 
C 2259 4314 2221 4480 2144 4480 
C 2048 4480 1850 3783 1728 3450 
C 1421 2605 1120 1754 813 909 
L 717 640 
C 627 410 518 141 166 141 
z
M 1210 1741 
L 2029 4018 
L 2848 1741 
L 1210 1741 
z
" transform="scale(0.015625)"/>
       <path id="SFRM3583-70" d="M 288 2750 
L 288 2608 
L 371 2608 
C 576 2608 666 2524 666 2326 
L 666 -731 
C 666 -775 672 -818 672 -862 
C 672 -1062 512 -1075 346 -1075 
L 288 -1075 
L 288 -1216 
L 1306 -1216 
L 1306 -1075 
L 1216 -1075 
C 1069 -1075 928 -1056 928 -854 
L 934 471 
C 1069 135 1459 -32 1728 -32 
C 2438 -32 2912 691 2912 1400 
C 2912 2032 2534 2819 1798 2819 
C 1453 2819 1050 2600 928 2298 
L 922 2819 
L 288 2750 
z
M 2579 1278 
C 2547 780 2278 45 1709 45 
C 1370 45 922 349 922 749 
C 922 788 928 827 928 866 
L 928 1821 
C 928 1885 922 1950 922 2014 
C 922 2375 1357 2737 1734 2737 
C 2349 2737 2586 1898 2586 1394 
C 2586 1355 2586 1317 2579 1278 
z
" transform="scale(0.015625)"/>
       <path id="SFRM3583-6c" d="M 307 4365 
L 307 4224 
L 384 4224 
C 608 4224 678 4121 678 3911 
L 678 372 
C 678 180 595 141 307 141 
L 307 0 
L 1306 0 
L 1306 141 
L 1203 141 
C 1062 141 934 160 934 365 
L 934 4435 
L 307 4365 
z
" transform="scale(0.015625)"/>
       <path id="SFRM3583-64" d="M 1882 4397 
L 1882 4256 
L 1952 4256 
C 2150 4256 2259 4198 2259 3955 
L 2253 2323 
C 2131 2617 1766 2816 1459 2816 
C 710 2816 269 2052 269 1373 
C 269 731 653 0 1338 0 
L 1395 0 
C 1741 0 2118 204 2246 507 
L 2253 0 
L 2893 0 
L 2893 160 
L 2816 160 
C 2605 160 2515 237 2515 461 
L 2515 4467 
L 1882 4397 
z
M 595 1245 
L 595 1341 
C 595 1783 659 2310 1056 2593 
C 1190 2689 1344 2740 1498 2740 
C 1862 2740 2259 2393 2259 2021 
C 2259 1951 2253 1874 2253 1804 
L 2253 770 
C 2253 424 1811 58 1440 58 
C 947 58 678 558 621 981 
C 608 1072 608 1155 595 1245 
z
" transform="scale(0.015625)"/>
      </defs>
      <use xlink:href="#SFRM3583-41" transform="scale(0.996264)"/>
      <use xlink:href="#SFRM3583-6d" transform="translate(66.840991 0) scale(0.996264)"/>
      <use xlink:href="#SFRM3583-70" transform="translate(141.179607 0) scale(0.996264)"/>
      <use xlink:href="#SFRM3583-6c" transform="translate(190.718035 0) scale(0.996264)"/>
      <use xlink:href="#SFRM3583-69" transform="translate(215.456367 0) scale(0.996264)"/>
      <use xlink:href="#SFRM3583-74" transform="translate(240.194698 0) scale(0.996264)"/>
      <use xlink:href="#SFRM3583-75" transform="translate(274.853044 0) scale(0.996264)"/>
      <use xlink:href="#SFRM3583-64" transform="translate(324.391473 0) scale(0.996264)"/>
      <use xlink:href="#SFRM3583-65" transform="translate(373.929901 0) scale(0.996264)"/>
     </g>
    </g>
   </g>
   <g id="line2d_85">
    <path d="M 76.711949 62.989449 
L 76.980797 62.998167 
L 77.249646 66.185296 
L 77.518494 64.945177 
L 78.325039 93.463283 
L 78.593887 100.313424 
L 78.862736 92.393377 
L 79.131584 95.141757 
L 79.400432 93.772091 
L 79.669281 90.157972 
L 79.938129 89.821114 
L 80.206978 91.049323 
L 80.744674 88.002397 
L 81.282371 104.774686 
L 81.820068 101.105547 
L 82.357765 114.702388 
L 82.626613 115.630124 
L 83.16431 120.297398 
L 83.433158 124.504485 
L 83.702006 121.625628 
L 83.970855 122.314438 
L 84.239703 121.591756 
L 84.508552 126.17333 
L 84.7774 120.473507 
L 85.046248 119.828029 
L 85.315097 120.474327 
L 85.583945 109.206402 
L 85.852793 119.666439 
L 86.121642 113.649727 
L 86.39049 113.429169 
L 86.659339 121.249117 
L 86.928187 111.148024 
L 87.197035 109.079445 
L 87.465884 108.926812 
L 87.734732 107.477087 
L 88.00358 110.835462 
L 88.272429 104.988955 
L 88.541277 104.432455 
L 88.810126 96.36442 
L 89.078974 96.477069 
L 89.347822 90.02861 
L 89.616671 78.178688 
L 89.885519 72.584449 
L 90.154367 63.211983 
L 90.423216 68.56288 
L 90.692064 83.212592 
L 90.960913 86.173018 
L 91.229761 79.95304 
L 91.498609 85.452757 
L 91.767458 84.298157 
L 92.036306 85.466516 
L 92.305154 93.71994 
L 92.574003 96.933403 
L 93.111699 81.610522 
L 93.649396 70.09074 
L 93.918245 70.524461 
L 94.187093 72.378648 
L 94.455941 77.066008 
L 94.72479 78.488365 
L 94.993638 73.521446 
L 95.262486 75.212211 
L 95.531335 70.728118 
L 95.800183 77.742588 
L 96.069032 74.730948 
L 96.33788 74.828172 
L 96.875577 66.46366 
L 97.413273 55.058824 
L 97.95097 44.669999 
L 98.219819 50.271484 
L 98.488667 45.213557 
L 98.757515 52.449575 
L 99.026364 40.042253 
L 99.295212 37.496977 
L 100.101757 50.156202 
L 100.370606 50.03389 
L 100.639454 59.594391 
L 100.908302 59.713371 
L 101.177151 62.91348 
L 101.445999 74.6706 
L 101.714847 73.729112 
L 102.252544 66.850698 
L 102.521393 77.272143 
L 102.790241 78.349262 
L 103.059089 75.310416 
L 103.327938 79.648723 
L 103.596786 76.221223 
L 103.865634 76.808987 
L 104.134483 71.222016 
L 104.403331 74.701975 
L 104.67218 74.907899 
L 105.209876 82.935313 
L 105.478725 86.375383 
L 105.747573 87.048987 
L 106.28527 79.558555 
L 106.822966 85.520681 
L 107.091815 82.657282 
L 107.629512 92.238386 
L 107.89836 87.510063 
L 108.167208 80.772688 
L 108.436057 79.31198 
L 108.704905 70.764355 
L 108.973753 67.4658 
L 109.242602 66.185838 
L 109.51145 74.575826 
L 110.317995 61.283978 
L 110.586844 65.363576 
L 111.12454 57.828517 
L 111.393389 58.808579 
L 111.662237 55.894632 
L 111.931086 46.883419 
L 112.199934 55.063078 
L 112.737631 62.398409 
L 113.006479 68.876418 
L 113.275327 70.917294 
L 113.544176 78.042597 
L 113.813024 66.986711 
L 114.619569 89.420248 
L 114.888418 83.967009 
L 115.157266 85.58037 
L 115.426114 84.065854 
L 115.963811 97.15234 
L 116.23266 90.698295 
L 116.501508 90.31227 
L 117.039205 105.274358 
L 117.308053 95.999296 
L 117.576901 93.2443 
L 118.114598 98.477976 
L 118.383447 93.457648 
L 118.652295 94.488708 
L 118.921143 97.126268 
L 119.189992 96.656814 
L 119.45884 102.442027 
L 119.727688 113.213086 
L 119.996537 103.438979 
L 120.265385 105.222452 
L 120.803082 103.467485 
L 121.609627 135.080816 
L 121.878475 138.652936 
L 122.147324 133.041256 
L 122.416172 131.930051 
L 122.953869 119.451506 
L 123.222717 118.459061 
L 124.029262 129.450895 
L 124.298111 121.716164 
L 124.566959 120.524325 
L 124.835807 123.431673 
L 125.104656 117.071267 
L 125.373504 118.370656 
L 125.642353 129.159454 
L 125.911201 127.778174 
L 126.180049 133.771995 
L 126.448898 134.87568 
L 126.717746 138.231672 
L 126.986594 134.610046 
L 127.255443 128.33341 
L 127.524291 146.130787 
L 127.79314 151.835451 
L 128.330836 173.514316 
L 128.599685 173.033839 
L 128.868533 168.834872 
L 129.137381 174.766165 
L 129.40623 173.2245 
L 129.675078 174.734081 
L 129.943927 171.740379 
L 130.212775 174.330971 
L 130.481623 184.91038 
L 130.750472 189.37593 
L 131.01932 191.294257 
L 131.288168 199.724242 
L 131.557017 193.849785 
L 131.825865 191.426634 
L 132.094714 190.408071 
L 132.363562 193.720765 
L 132.63241 195.297805 
L 132.901259 188.064984 
L 133.170107 190.055247 
L 133.438955 179.883827 
L 133.707804 187.099988 
L 133.976652 189.000669 
L 134.2455 186.00003 
L 134.514349 185.314821 
L 134.783197 180.722398 
L 135.052046 172.48518 
L 135.320894 179.809659 
L 135.589742 168.554175 
L 135.858591 175.284146 
L 136.127439 173.766052 
L 136.665136 163.777104 
L 136.933984 163.804637 
L 137.471681 159.326568 
L 137.740529 158.623391 
L 138.009378 155.694606 
L 138.278226 160.437561 
L 138.547074 158.542665 
L 138.815923 163.466633 
L 139.084771 170.887775 
L 139.35362 166.135414 
L 139.622468 166.478621 
L 139.891316 162.547984 
L 140.160165 164.13346 
L 140.429013 163.65975 
L 140.697861 172.700025 
L 140.96671 168.491814 
L 141.235558 166.335847 
L 141.504407 161.255929 
L 141.773255 149.473683 
L 142.042103 143.66837 
L 142.310952 142.412015 
L 142.5798 129.749989 
L 142.848648 127.035234 
L 143.117497 132.697668 
L 143.386345 132.715345 
L 143.655194 129.01166 
L 143.924042 133.064507 
L 144.19289 129.77456 
L 144.461739 124.91877 
L 144.730587 132.44859 
L 144.999435 136.746829 
L 145.268284 138.161616 
L 145.537132 140.544761 
L 145.805981 133.527279 
L 146.074829 122.421331 
L 146.343677 124.343523 
L 146.612526 129.680436 
L 146.881374 131.848688 
L 147.150222 138.215115 
L 147.419071 135.249127 
L 147.687919 140.791869 
L 147.956767 134.522892 
L 148.763313 146.087424 
L 149.032161 142.07608 
L 149.569858 144.296718 
L 149.838706 146.597265 
L 150.107554 150.319675 
L 150.376403 151.131131 
L 150.645251 149.77381 
L 150.9141 152.948832 
L 151.182948 154.361313 
L 151.451796 156.717386 
L 151.720645 163.775255 
L 152.258341 157.393327 
L 152.52719 145.077724 
L 152.796038 140.84686 
L 153.064887 140.437066 
L 153.333735 136.580655 
L 153.602583 127.047652 
L 153.871432 136.688685 
L 154.14028 131.280548 
L 154.409128 128.586084 
L 154.677977 124.191815 
L 154.946825 129.936794 
L 155.215674 130.531658 
L 155.484522 133.39581 
L 155.75337 130.934046 
L 156.022219 135.482564 
L 156.291067 133.933166 
L 156.559915 135.547979 
L 156.828764 131.27706 
L 157.097612 133.753575 
L 157.366461 140.714763 
L 157.635309 134.106759 
L 158.173006 134.852838 
L 158.441854 126.576182 
L 158.710702 128.376008 
L 158.979551 128.957478 
L 159.248399 129.921689 
L 159.517248 122.181499 
L 159.786096 122.272551 
L 160.054944 126.362054 
L 160.323793 124.365753 
L 160.592641 118.879091 
L 160.861489 118.201073 
L 161.130338 122.322063 
L 161.399186 116.744691 
L 161.668035 114.797812 
L 161.936883 110.114327 
L 163.281125 133.323038 
L 163.549973 124.597015 
L 163.818821 122.163345 
L 164.08767 113.639825 
L 164.356518 120.938707 
L 164.625367 120.506924 
L 164.894215 118.932654 
L 165.431912 106.777054 
L 165.70076 106.94777 
L 165.969608 98.424911 
L 166.238457 98.929726 
L 166.776154 102.066352 
L 167.045002 105.353749 
L 167.31385 92.776999 
L 167.582699 93.63916 
L 168.389244 74.951023 
L 168.658092 73.117746 
L 168.926941 76.426542 
L 169.195789 84.277845 
L 169.464637 82.828868 
L 169.733486 74.023518 
L 170.002334 77.194275 
L 170.271182 69.048613 
L 170.540031 75.966372 
L 170.808879 79.638724 
L 171.077728 79.908338 
L 171.346576 85.894005 
L 171.615424 81.859996 
L 171.884273 81.197918 
L 172.153121 81.074731 
L 172.421969 85.96947 
L 172.690818 71.474063 
L 172.959666 76.885853 
L 173.228515 65.21063 
L 173.497363 68.260187 
L 173.766211 59.173361 
L 174.03506 54.891587 
L 174.303908 58.143069 
L 174.572756 54.269956 
L 174.841605 56.747792 
L 175.110453 56.174527 
L 175.379302 62.087646 
L 175.64815 61.403288 
L 175.916998 63.169665 
L 176.185847 62.681519 
L 176.454695 67.444484 
L 176.723543 63.645979 
L 176.992392 62.847039 
L 177.26124 70.948842 
L 177.530088 66.992356 
L 177.798937 72.881986 
L 178.067785 73.083061 
L 178.605482 66.417614 
L 179.143179 63.944622 
L 179.680875 57.541651 
L 179.949724 50.810653 
L 180.218572 54.99322 
L 180.487421 53.728697 
L 180.756269 61.355271 
L 181.025117 59.882055 
L 181.293966 62.17123 
L 181.562814 67.142914 
L 181.831662 63.431114 
L 182.100511 74.837479 
L 182.369359 71.923923 
L 182.638208 71.657806 
L 182.907056 82.274758 
L 183.175904 88.112352 
L 183.444753 90.266188 
L 183.713601 95.664313 
L 183.982449 89.081824 
L 184.251298 91.194994 
L 184.520146 94.724624 
L 184.788995 103.601013 
L 185.057843 106.648907 
L 185.326691 114.297319 
L 185.59554 115.813775 
L 185.864388 115.094766 
L 186.402085 130.689523 
L 186.670933 130.447922 
L 187.20863 127.150457 
L 187.477478 127.149689 
L 187.746327 132.151751 
L 188.284023 136.100392 
L 188.552872 140.427644 
L 188.82172 148.365364 
L 189.090569 140.21597 
L 189.359417 137.099936 
L 189.628265 144.300817 
L 189.897114 140.759364 
L 190.165962 138.954322 
L 190.43481 141.842203 
L 190.703659 151.289777 
L 190.972507 142.896772 
L 191.241355 144.103771 
L 191.779052 139.541563 
L 192.047901 144.136394 
L 192.854446 134.787066 
L 193.123294 128.47217 
L 193.392142 128.446393 
L 193.660991 129.749767 
L 193.929839 138.96248 
L 194.198688 137.679606 
L 194.467536 137.700698 
L 194.736384 137.006999 
L 195.005233 133.952048 
L 195.274081 126.146927 
L 195.811778 130.011476 
L 196.080626 135.511948 
L 196.349475 131.553432 
L 196.618323 139.168791 
L 196.887171 142.256297 
L 197.15602 139.3539 
L 197.424868 148.828387 
L 197.693716 151.405569 
L 197.962565 146.620357 
L 198.231413 137.93111 
L 198.500262 139.655159 
L 198.76911 133.637017 
L 199.037958 137.466855 
L 199.306807 138.338953 
L 199.575655 139.7533 
L 200.3822 120.241463 
L 200.651049 120.518677 
L 200.919897 108.929526 
L 201.457594 100.874042 
L 201.726442 98.771324 
L 202.264139 90.694862 
L 202.532987 100.669239 
L 202.801836 100.244554 
L 203.070684 90.181587 
L 203.877229 77.557201 
L 204.146077 77.163674 
L 204.414926 79.486344 
L 204.683774 78.835601 
L 204.952622 78.930327 
L 205.221471 83.220985 
L 205.490319 92.717005 
L 205.759168 89.853166 
L 206.028016 80.152826 
L 206.296864 83.07801 
L 206.565713 100.128071 
L 206.834561 102.443943 
L 207.103409 107.79882 
L 207.372258 102.005943 
L 207.909955 106.210018 
L 208.447651 117.072669 
L 208.7165 113.19521 
L 209.254196 97.801877 
L 209.523045 93.154186 
L 209.791893 92.895335 
L 210.060742 83.274645 
L 210.32959 86.192112 
L 210.598438 84.40808 
L 210.867287 86.370789 
L 211.136135 81.428826 
L 211.404983 89.707997 
L 211.94268 87.120125 
L 212.211529 78.982518 
L 212.480377 76.458549 
L 212.749225 79.898221 
L 213.018074 79.166461 
L 213.286922 80.338776 
L 213.55577 82.779334 
L 213.824619 81.063744 
L 214.093467 87.826257 
L 214.362316 90.217754 
L 214.631164 90.964655 
L 214.900012 96.773194 
L 215.168861 97.467761 
L 215.437709 98.606674 
L 215.706557 103.789085 
L 215.975406 91.033016 
L 216.244254 85.96836 
L 216.781951 99.1041 
L 217.050799 85.980679 
L 217.588496 98.935154 
L 218.126193 104.628316 
L 218.395041 109.729947 
L 218.663889 121.476323 
L 218.932738 122.465188 
L 219.201586 117.546808 
L 219.470435 117.68658 
L 220.008131 134.477623 
L 220.27698 134.325443 
L 220.545828 135.81053 
L 221.083525 145.324704 
L 221.352373 144.54774 
L 221.621222 144.525777 
L 221.89007 151.776457 
L 222.158918 144.128263 
L 222.427767 145.040102 
L 222.965463 143.395969 
L 223.234312 142.470267 
L 223.50316 139.078283 
L 223.772009 148.647382 
L 224.040857 137.485098 
L 224.309705 140.330118 
L 224.847402 152.430568 
L 225.653947 140.953614 
L 225.922796 149.386867 
L 226.191644 149.664003 
L 226.460492 150.558226 
L 226.998189 158.846779 
L 227.267037 159.461629 
L 227.535886 151.687617 
L 228.073583 163.579584 
L 228.342431 163.298976 
L 229.148976 176.312934 
L 229.417824 171.099842 
L 229.686673 180.446805 
L 229.955521 183.644648 
L 230.22437 182.901278 
L 230.493218 183.178308 
L 230.762066 180.820354 
L 231.030915 180.500845 
L 231.568611 194.060417 
L 231.83746 197.8039 
L 232.106308 213.788912 
L 232.375157 202.369647 
L 232.644005 203.576665 
L 232.912853 202.504929 
L 233.181702 199.481345 
L 233.719398 211.68246 
L 233.988247 210.987123 
L 234.525943 225.749508 
L 235.332489 216.766153 
L 235.870185 232.764859 
L 236.139034 233.430373 
L 236.407882 239.846564 
L 236.67673 241.145111 
L 236.945579 240.540157 
L 237.214427 245.18423 
L 237.483276 238.407503 
L 237.752124 238.202425 
L 238.020972 242.00119 
L 238.289821 238.583745 
L 238.558669 253.91418 
L 238.827517 256.570121 
L 239.096366 255.612582 
L 239.365214 267.655284 
L 239.634063 272.844418 
L 239.902911 274.101878 
L 240.171759 269.742417 
L 240.440608 277.446546 
L 240.709456 279.049258 
L 240.978304 269.068329 
L 241.516001 257.951534 
L 241.78485 261.621162 
L 242.053698 255.79647 
L 242.322546 252.949897 
L 242.591395 258.467902 
L 243.129091 252.036476 
L 243.39794 252.043677 
L 243.666788 250.201943 
L 243.935637 241.181619 
L 244.204485 244.949184 
L 244.473333 256.566176 
L 244.742182 256.040284 
L 245.01103 264.491262 
L 245.279878 264.587126 
L 245.548727 270.329442 
L 246.086424 265.752784 
L 246.355272 258.96734 
L 246.62412 261.454325 
L 246.892969 259.279663 
L 247.161817 259.162237 
L 247.430665 261.780312 
L 247.699514 268.586623 
L 247.968362 270.836311 
L 248.506059 277.243966 
L 248.774907 272.875275 
L 249.043756 278.811507 
L 249.581452 282.769242 
L 249.850301 273.632308 
L 250.119149 275.704412 
L 250.387997 271.393694 
L 250.656846 269.174794 
L 250.925694 269.738171 
L 251.194543 266.229163 
L 251.732239 256.26991 
L 252.269936 239.231387 
L 252.538784 239.757573 
L 253.34533 246.357378 
L 254.151875 229.458399 
L 254.689571 249.56655 
L 254.95842 249.259819 
L 255.227268 259.659416 
L 255.496117 262.014807 
L 255.764965 265.866039 
L 256.033813 271.989443 
L 256.57151 274.778206 
L 257.109207 286.686292 
L 257.378055 281.281706 
L 257.915752 289.732387 
L 258.1846 290.595622 
L 258.453449 290.147157 
L 258.722297 298.057664 
L 258.991145 297.716582 
L 259.259994 301.906044 
L 259.528842 303.888123 
L 259.797691 292.981506 
L 260.066539 295.254956 
L 260.335387 290.459507 
L 260.604236 281.212079 
L 260.873084 280.442809 
L 261.141932 282.924506 
L 261.410781 290.314149 
L 261.679629 291.707695 
L 262.217326 279.054553 
L 262.486174 277.851812 
L 262.755023 281.055668 
L 263.023871 288.40403 
L 263.292719 279.75277 
L 263.830416 273.14721 
L 264.099264 271.595942 
L 264.368113 274.856456 
L 264.90581 261.309739 
L 265.174658 271.340333 
L 265.443506 272.892041 
L 265.712355 275.158211 
L 265.981203 262.650047 
L 266.250051 265.939872 
L 266.5189 261.04345 
L 266.787748 265.714172 
L 267.056597 257.898 
L 267.325445 258.23974 
L 267.594293 254.271047 
L 267.863142 245.207026 
L 268.13199 246.262199 
L 268.400838 242.413887 
L 268.669687 243.327197 
L 268.938535 240.911908 
L 269.207384 236.948691 
L 269.476232 222.971535 
L 269.74508 220.998443 
L 270.013929 211.457307 
L 270.282777 218.453567 
L 270.551625 229.247804 
L 270.820474 229.66827 
L 271.089322 228.032141 
L 271.358171 238.355829 
L 271.627019 243.657496 
L 271.895867 238.242146 
L 272.164716 239.280461 
L 272.433564 242.16323 
L 272.702412 236.328349 
L 272.971261 239.658338 
L 273.240109 233.990997 
L 273.508958 234.578243 
L 273.777806 237.061737 
L 274.046654 246.653988 
L 274.315503 239.175375 
L 274.584351 237.144743 
L 274.853199 237.568444 
L 275.122048 247.765446 
L 275.390896 243.543389 
L 275.659744 249.681448 
L 275.928593 250.208831 
L 276.197441 245.269247 
L 276.46629 248.685092 
L 276.735138 242.358041 
L 277.003986 246.986523 
L 277.541683 235.626414 
L 278.07938 229.028611 
L 278.348228 226.906952 
L 278.885925 217.063978 
L 279.154773 221.952479 
L 279.961318 230.597016 
L 280.499015 222.94177 
L 280.767864 223.881324 
L 281.036712 212.555864 
L 281.30556 223.81008 
L 281.574409 219.999891 
L 281.843257 222.078871 
L 282.112105 221.593399 
L 282.380954 222.218012 
L 282.649802 227.306938 
L 282.918651 226.487409 
L 283.187499 223.457961 
L 283.456347 228.204085 
L 283.725196 228.967781 
L 283.994044 236.403452 
L 284.531741 234.172829 
L 285.069438 212.800379 
L 285.338286 224.353936 
L 285.875983 230.078663 
L 286.413679 219.803712 
L 286.682528 218.482376 
L 286.951376 213.707249 
L 287.220225 223.367779 
L 287.489073 223.897792 
L 287.757921 219.967675 
L 288.02677 229.851808 
L 288.564466 214.508179 
L 288.833315 222.627682 
L 289.102163 220.537977 
L 289.371011 216.378776 
L 289.63986 204.106498 
L 289.908708 198.398021 
L 290.177557 197.767254 
L 290.446405 207.136005 
L 290.715253 208.934668 
L 290.984102 214.449138 
L 291.25295 208.892298 
L 291.521798 208.16483 
L 291.790647 206.078697 
L 292.059495 195.963576 
L 292.328344 193.618592 
L 292.86604 200.601115 
L 293.134889 205.345348 
L 293.403737 200.625732 
L 293.672585 211.585617 
L 293.941434 203.003578 
L 294.210282 202.73434 
L 294.479131 205.168812 
L 294.747979 193.486506 
L 295.016827 190.331544 
L 295.285676 184.948953 
L 295.823372 188.054601 
L 296.092221 196.05812 
L 296.361069 194.413646 
L 296.629918 190.607429 
L 296.898766 194.3595 
L 297.167614 189.280807 
L 297.436463 191.088398 
L 297.974159 198.052609 
L 298.243008 198.312582 
L 298.511856 200.480623 
L 298.780705 196.159775 
L 299.049553 196.912155 
L 299.58725 185.679766 
L 299.856098 180.577583 
L 300.124946 179.877496 
L 300.393795 175.268836 
L 300.662643 174.409708 
L 300.931492 166.742248 
L 301.20034 162.660717 
L 301.469188 152.601655 
L 301.738037 154.851575 
L 302.006885 148.325881 
L 302.275733 157.18185 
L 302.544582 160.02811 
L 302.81343 156.872978 
L 303.082278 152.288432 
L 303.351127 158.925428 
L 303.619975 149.396589 
L 303.888824 150.863839 
L 304.157672 155.102014 
L 304.42652 153.518598 
L 304.964217 147.545657 
L 305.233065 135.775634 
L 305.501914 137.072976 
L 305.770762 134.702678 
L 306.039611 135.255597 
L 306.308459 143.167904 
L 306.577307 143.531972 
L 306.846156 147.646707 
L 307.115004 149.004674 
L 307.383852 148.238346 
L 307.921549 145.689311 
L 308.190398 146.85293 
L 308.459246 150.27149 
L 308.728094 160.036485 
L 308.996943 147.839288 
L 309.265791 147.971693 
L 309.534639 150.247582 
L 309.803488 148.583395 
L 310.072336 150.189709 
L 310.610033 145.464173 
L 310.878881 134.072629 
L 311.14773 134.869654 
L 311.416578 133.656499 
L 311.685426 131.378651 
L 312.491972 150.408332 
L 312.76082 153.294052 
L 313.029668 153.876419 
L 313.298517 153.315747 
L 313.836213 160.85325 
L 314.37391 161.877267 
L 314.642759 154.946322 
L 314.911607 155.617912 
L 315.449304 170.428859 
L 315.718152 172.055143 
L 315.987 169.573741 
L 316.524697 161.844025 
L 316.793546 160.759293 
L 317.331242 166.885501 
L 317.600091 180.462105 
L 317.868939 176.56081 
L 318.137787 192.271229 
L 318.406636 194.862305 
L 318.675484 199.952201 
L 318.944332 200.22032 
L 319.213181 205.99314 
L 319.482029 194.630082 
L 319.750878 198.2493 
L 320.019726 192.593601 
L 320.288574 199.262021 
L 320.557423 198.946567 
L 320.826271 202.629146 
L 321.095119 208.929535 
L 321.363968 210.312333 
L 321.632816 200.701835 
L 321.901665 200.267658 
L 322.170513 195.363006 
L 322.439361 193.60841 
L 322.70821 197.561839 
L 322.977058 210.422168 
L 323.245906 199.990923 
L 323.514755 200.999867 
L 323.783603 197.771226 
L 324.052452 192.981712 
L 324.3213 186.015933 
L 324.590148 197.217506 
L 324.858997 194.967206 
L 325.127845 197.020317 
L 325.665542 190.50962 
L 325.93439 190.792666 
L 326.203239 187.406634 
L 326.472087 188.630876 
L 326.740935 194.547005 
L 327.009784 192.845887 
L 327.278632 195.723819 
L 327.54748 206.610826 
L 327.816329 206.604433 
L 328.085177 219.506296 
L 328.354026 219.339303 
L 328.622874 220.225642 
L 328.891722 227.010803 
L 329.160571 225.251747 
L 329.429419 232.192699 
L 329.698267 233.368405 
L 329.967116 235.125094 
L 330.235964 235.307416 
L 330.504813 233.847719 
L 330.773661 238.729551 
L 331.042509 230.539743 
L 331.311358 230.514748 
L 331.580206 227.488887 
L 331.849054 222.139124 
L 332.117903 222.087817 
L 332.386751 218.784217 
L 332.655599 228.918907 
L 333.462145 217.37154 
L 333.999841 196.910124 
L 334.26869 195.090661 
L 334.537538 192.164661 
L 334.806386 191.877603 
L 335.075235 193.013564 
L 335.344083 196.072288 
L 335.612932 203.889317 
L 335.88178 195.475936 
L 336.419477 207.309188 
L 336.688325 201.264939 
L 336.957173 203.788256 
L 337.226022 198.973446 
L 337.49487 190.960825 
L 337.763719 193.100002 
L 338.032567 193.983342 
L 338.301415 197.020396 
L 338.570264 197.713717 
L 338.839112 199.275753 
L 339.10796 194.796633 
L 339.376809 188.403796 
L 339.645657 187.585862 
L 339.914506 181.785591 
L 340.183354 186.144075 
L 340.452202 182.100278 
L 340.721051 188.560325 
L 340.989899 189.464282 
L 341.258747 191.05272 
L 341.527596 188.772398 
L 341.796444 190.47808 
L 342.065293 188.287617 
L 342.334141 178.789775 
L 342.602989 178.631823 
L 342.871838 185.004486 
L 343.140686 177.237094 
L 343.409534 175.453785 
L 343.678383 178.558875 
L 343.947231 180.108468 
L 344.21608 183.569894 
L 344.484928 177.377061 
L 345.022625 185.326521 
L 345.291473 191.13654 
L 345.291473 191.13654 
" clip-path="url(#pb9de73ca1b)" style="fill: none; stroke: #000000; stroke-linecap: square"/>
   </g>
   <g id="patch_3">
    <path d="M 63.282973 317.20768 
L 63.282973 24.17742 
" style="fill: none; stroke: #000000; stroke-width: 1.5; stroke-linejoin: miter; stroke-linecap: square"/>
   </g>
   <g id="patch_4">
    <path d="M 358.720449 317.20768 
L 358.720449 24.17742 
" style="fill: none; stroke: #000000; stroke-width: 1.5; stroke-linejoin: miter; stroke-linecap: square"/>
   </g>
   <g id="patch_5">
    <path d="M 63.282973 317.20768 
L 358.720449 317.20768 
" style="fill: none; stroke: #000000; stroke-width: 1.5; stroke-linejoin: miter; stroke-linecap: square"/>
   </g>
   <g id="patch_6">
    <path d="M 63.282973 24.17742 
L 358.720449 24.17742 
" style="fill: none; stroke: #000000; stroke-width: 1.5; stroke-linejoin: miter; stroke-linecap: square"/>
   </g>
   <g id="text_14">
    <!-- Brownian Motion -->
    <g transform="translate(152.94447 18.17742) scale(0.16 -0.16)">
     <defs>
      <path id="SFRM3583-42" d="M 474 4352 
L 474 4231 
L 582 4231 
C 749 4231 883 4212 883 3962 
L 883 416 
C 883 166 774 147 474 147 
L 474 0 
L 2067 0 
C 2176 0 2278 0 2387 0 
C 2995 0 3738 369 3738 1153 
C 3738 1771 3168 2275 2554 2275 
C 2976 2391 3578 2592 3578 3297 
C 3578 3925 2989 4352 2387 4352 
L 474 4352 
z
M 1184 2225 
L 2285 2225 
C 2470 2225 2656 2225 2822 2129 
C 3168 1945 3379 1569 3379 1186 
C 3379 567 2854 147 2227 147 
C 2131 147 2029 147 1933 147 
L 1357 147 
C 1235 147 1184 217 1184 332 
L 1184 2225 
z
M 1184 2307 
L 1184 4020 
C 1184 4135 1210 4231 1357 4231 
L 1907 4231 
C 2003 4231 2099 4231 2202 4231 
C 2662 4231 3232 3962 3232 3291 
C 3232 2799 2816 2403 2342 2326 
C 2240 2307 2131 2307 2029 2307 
L 1184 2307 
z
" transform="scale(0.015625)"/>
      <path id="SFRM3583-6f" d="M 1350 2816 
C 614 2726 237 2042 237 1376 
C 237 698 685 -32 1440 -32 
L 1504 -32 
C 2240 58 2624 736 2624 1382 
C 2624 2035 2182 2822 1440 2822 
C 1408 2822 1382 2816 1350 2816 
z
M 563 1274 
L 563 1376 
C 563 1856 621 2395 1114 2663 
C 1197 2702 1293 2734 1389 2734 
L 1434 2734 
C 2054 2734 2298 2012 2298 1495 
C 2298 990 2246 269 1606 77 
C 1549 64 1491 51 1434 51 
C 960 51 653 525 595 979 
C 576 1075 576 1178 563 1274 
z
" transform="scale(0.015625)"/>
      <path id="SFRM3583-77" d="M 90 2752 
L 90 2612 
L 141 2612 
C 397 2612 429 2496 563 2088 
L 1216 122 
C 1235 70 1248 -32 1318 -32 
L 1325 -32 
C 1382 -19 1402 96 1421 147 
L 1792 1264 
C 1850 1443 1907 1622 1971 1801 
C 2003 1902 2048 2005 2067 2107 
L 2074 2107 
C 2093 2005 2138 1902 2170 1801 
C 2234 1622 2291 1443 2349 1264 
L 2720 147 
C 2739 96 2758 -19 2816 -32 
L 2822 -32 
C 2893 -32 2906 70 2925 122 
L 3098 638 
C 3264 1143 3430 1641 3597 2145 
C 3661 2350 3776 2612 4051 2612 
L 4051 2752 
L 3296 2752 
L 3296 2612 
C 3456 2612 3552 2464 3552 2350 
C 3552 2254 3514 2158 3482 2069 
C 3290 1501 3104 926 2912 358 
C 2835 538 2784 729 2726 914 
C 2579 1354 2426 1801 2278 2248 
C 2259 2312 2221 2389 2221 2458 
C 2221 2592 2387 2612 2490 2612 
L 2490 2752 
L 1600 2752 
L 1600 2612 
L 1645 2612 
C 1824 2612 1920 2573 1984 2357 
C 1997 2325 2016 2280 2016 2241 
L 2016 2229 
C 2010 2165 1984 2107 1965 2049 
L 1843 1698 
C 1690 1264 1536 817 1408 377 
L 1402 377 
C 1389 447 1357 517 1338 588 
L 1216 952 
C 1094 1315 973 1674 851 2038 
L 762 2318 
C 742 2363 723 2414 723 2459 
L 723 2478 
C 742 2592 896 2612 992 2612 
L 992 2752 
L 90 2752 
z
" transform="scale(0.015625)"/>
      <path id="SFRM3583-4d" d="M 474 4365 
L 474 4224 
L 582 4224 
C 736 4224 890 4205 890 3987 
C 890 3937 883 3886 883 3841 
L 883 799 
C 883 735 890 671 890 601 
C 890 397 832 141 474 141 
L 474 0 
L 1382 0 
L 1382 141 
C 1005 141 973 404 973 627 
L 979 4230 
C 1005 4096 1069 3961 1114 3834 
C 1562 2640 1965 1432 2394 231 
C 2419 154 2458 0 2515 0 
C 2592 0 2790 665 2906 991 
C 3283 2020 3642 3068 4013 4110 
C 4026 4154 4051 4199 4058 4250 
L 4064 365 
C 4064 192 3994 141 3654 141 
L 3654 0 
L 4774 0 
L 4774 141 
L 4666 141 
C 4499 141 4365 160 4365 410 
L 4365 3809 
C 4365 3854 4358 3905 4358 3955 
C 4358 4211 4506 4224 4774 4224 
L 4774 4365 
L 4096 4365 
L 4032 4352 
L 3917 4064 
L 2624 422 
L 1331 4064 
L 1216 4352 
L 1152 4365 
L 474 4365 
z
" transform="scale(0.015625)"/>
     </defs>
     <use xlink:href="#SFRM3583-42" transform="scale(0.996264)"/>
     <use xlink:href="#SFRM3583-72" transform="translate(63.149724 0) scale(0.996264)"/>
     <use xlink:href="#SFRM3583-6f" transform="translate(97.80807 0) scale(0.996264)"/>
     <use xlink:href="#SFRM3583-77" transform="translate(139.906549 0) scale(0.996264)"/>
     <use xlink:href="#SFRM3583-6e" transform="translate(204.325135 0) scale(0.996264)"/>
     <use xlink:href="#SFRM3583-69" transform="translate(253.863563 0) scale(0.996264)"/>
     <use xlink:href="#SFRM3583-61" transform="translate(278.601895 0) scale(0.996264)"/>
     <use xlink:href="#SFRM3583-6e" transform="translate(323.180362 0) scale(0.996264)"/>
     <use xlink:href="#SFRM3583-4d" transform="translate(402.417083 0) scale(0.996264)"/>
     <use xlink:href="#SFRM3583-6f" transform="translate(484.138156 0) scale(0.996264)"/>
     <use xlink:href="#SFRM3583-74" transform="translate(528.716623 0) scale(0.996264)"/>
     <use xlink:href="#SFRM3583-69" transform="translate(563.374969 0) scale(0.996264)"/>
     <use xlink:href="#SFRM3583-6f" transform="translate(588.113301 0) scale(0.996264)"/>
     <use xlink:href="#SFRM3583-6e" transform="translate(632.691767 0) scale(0.996264)"/>
    </g>
   </g>
  </g>
 </g>
 <defs>
  <clipPath id="pb9de73ca1b">
   <rect x="63.282973" y="24.17742" width="295.437477" height="293.03026"/>
  </clipPath>
 </defs>
</svg>
