<?xml version="1.0" encoding="utf-8" standalone="no"?>
<!DOCTYPE svg PUBLIC "-//W3C//DTD SVG 1.1//EN"
  "http://www.w3.org/Graphics/SVG/1.1/DTD/svg11.dtd">
<svg xmlns:xlink="http://www.w3.org/1999/xlink" width="236.16pt" height="236.16pt" viewBox="0 0 236.16 236.16" xmlns="http://www.w3.org/2000/svg" version="1.1">
 <metadata>
  <rdf:RDF xmlns:dc="http://purl.org/dc/elements/1.1/" xmlns:cc="http://creativecommons.org/ns#" xmlns:rdf="http://www.w3.org/1999/02/22-rdf-syntax-ns#">
   <cc:Work>
    <dc:type rdf:resource="http://purl.org/dc/dcmitype/StillImage"/>
    <dc:date>2024-01-25T11:20:32.727395</dc:date>
    <dc:format>image/svg+xml</dc:format>
    <dc:creator>
     <cc:Agent>
      <dc:title>Matplotlib v3.8.2, https://matplotlib.org/</dc:title>
     </cc:Agent>
    </dc:creator>
   </cc:Work>
  </rdf:RDF>
 </metadata>
 <defs>
  <style type="text/css">*{stroke-linejoin: round; stroke-linecap: butt}</style>
 </defs>
 <g id="figure_1">
  <g id="patch_1">
   <path d="M 0 236.16 
L 236.16 236.16 
L 236.16 0 
L 0 0 
z
" style="fill: #ffffff"/>
  </g>
  <g id="axes_1">
   <g id="line2d_1">
    <defs>
     <path id="mc95b670e94" d="M 0 3 
C 0.795609 3 1.55874 2.683901 2.12132 2.12132 
C 2.683901 1.55874 3 0.795609 3 0 
C 3 -0.795609 2.683901 -1.55874 2.12132 -2.12132 
C 1.55874 -2.683901 0.795609 -3 0 -3 
C -0.795609 -3 -1.55874 -2.683901 -2.12132 -2.12132 
C -2.683901 -1.55874 -3 -0.795609 -3 0 
C -3 0.795609 -2.683901 1.55874 -2.12132 2.12132 
C -1.55874 2.683901 -0.795609 3 0 3 
z
" style="stroke: #000000"/>
    </defs>
    <g clip-path="url(#p17076ca04c)">
     <use xlink:href="#mc95b670e94" x="118.08" y="118.08" style="stroke: #000000"/>
    </g>
   </g>
   <g id="patch_2">
    <path d="M 120.907502 118.079075 
Q 142.094004 139.265577 163.280506 160.452079 
L 165.401826 158.330759 
Q 167.169418 163.633884 168.93701 168.93701 
Q 163.633884 167.169418 158.330759 165.401826 
L 160.452079 163.280506 
Q 139.265577 142.094004 118.079075 120.907502 
L 120.907502 118.079075 
z
" style="fill: #dd1c77; stroke: #000000; stroke-linecap: round"/>
   </g>
   <g id="text_1">
    <!-- $y(t)$ -->
    <g transform="translate(158.992735 173.836257) scale(0.14 -0.14)">
     <defs>
      <path id="CMMI12-79" d="M 1683 -700 
C 1510 -939 1261 -1152 947 -1152 
C 870 -1152 563 -1152 467 -889 
C 486 -895 518 -895 531 -895 
C 723 -895 851 -729 851 -582 
C 851 -435 730 -384 634 -384 
C 531 -384 307 -458 307 -759 
C 307 -1071 582 -1286 947 -1286 
C 1587 -1286 2234 -700 2413 6 
L 3040 2485 
C 3046 2517 3059 2556 3059 2594 
C 3059 2689 2982 2753 2886 2753 
C 2829 2753 2694 2727 2643 2535 
L 2170 658 
C 2138 543 2138 530 2086 460 
C 1958 281 1747 64 1440 64 
C 1082 64 1050 415 1050 588 
C 1050 952 1222 1443 1395 1903 
C 1466 2088 1504 2178 1504 2305 
C 1504 2574 1312 2816 998 2816 
C 410 2816 173 1890 173 1839 
C 173 1814 198 1782 243 1782 
C 301 1782 307 1807 333 1897 
C 486 2433 730 2689 979 2689 
C 1037 2689 1146 2689 1146 2478 
C 1146 2312 1075 2127 979 1884 
C 666 1047 666 837 666 683 
C 666 77 1101 -64 1421 -64 
C 1606 -64 1837 -6 2061 230 
L 2067 224 
C 1971 -147 1907 -392 1683 -700 
z
" transform="scale(0.015625)"/>
      <path id="CMR17-28" d="M 1958 -1561 
C 1958 -1555 1958 -1542 1939 -1523 
C 1645 -1224 858 -407 858 1581 
C 858 3569 1632 4379 1946 4697 
C 1946 4704 1958 4717 1958 4736 
C 1958 4755 1939 4768 1914 4768 
C 1843 4768 1299 4296 986 3594 
C 666 2887 576 2199 576 1588 
C 576 1128 621 351 1005 -471 
C 1312 -1135 1837 -1600 1914 -1600 
C 1946 -1600 1958 -1587 1958 -1561 
z
" transform="scale(0.015625)"/>
      <path id="CMMI12-74" d="M 1286 2566 
L 1875 2566 
C 1997 2566 2061 2566 2061 2681 
C 2061 2752 2022 2752 1894 2752 
L 1331 2752 
L 1568 3692 
C 1594 3781 1594 3794 1594 3840 
C 1594 3943 1510 4000 1427 4000 
C 1376 4000 1229 3981 1178 3775 
L 928 2752 
L 326 2752 
C 198 2752 141 2752 141 2630 
C 141 2566 186 2566 307 2566 
L 877 2566 
L 454 881 
C 403 658 384 594 384 511 
C 384 211 595 -64 954 -64 
C 1600 -64 1946 868 1946 912 
C 1946 951 1920 970 1882 970 
C 1869 970 1843 970 1830 944 
C 1824 938 1818 931 1773 829 
C 1638 511 1344 64 973 64 
C 781 64 768 224 768 364 
C 768 370 768 492 787 568 
L 1286 2566 
z
" transform="scale(0.015625)"/>
      <path id="CMR17-29" d="M 1683 1581 
C 1683 2040 1638 2817 1254 3639 
C 947 4303 422 4768 346 4768 
C 326 4768 301 4761 301 4729 
C 301 4717 307 4710 314 4697 
C 621 4378 1402 3568 1402 1584 
C 1402 -407 627 -1217 314 -1537 
C 307 -1549 301 -1556 301 -1568 
C 301 -1600 326 -1600 346 -1600 
C 416 -1600 960 -1128 1274 -426 
C 1594 281 1683 969 1683 1581 
z
" transform="scale(0.015625)"/>
     </defs>
     <use xlink:href="#CMMI12-79" transform="scale(0.996264)"/>
     <use xlink:href="#CMR17-28" transform="translate(51.138781 0) scale(0.996264)"/>
     <use xlink:href="#CMMI12-74" transform="translate(86.419549 0) scale(0.996264)"/>
     <use xlink:href="#CMR17-29" transform="translate(121.645879 0) scale(0.996264)"/>
    </g>
   </g>
   <g id="patch_3">
    <path d="M 116.08 116.081309 
Q 116.08 86.11907 116.08 56.156831 
L 113.08 56.156831 
Q 115.58 51.157079 118.08 46.157326 
Q 120.58 51.157079 123.08 56.156831 
L 120.08 56.156831 
Q 120.08 86.11907 120.08 116.081309 
L 116.08 116.081309 
z
" style="fill: #dd1c77; stroke: #000000; stroke-linecap: round"/>
   </g>
   <g id="text_2">
    <!-- $y(t+\tau)$ -->
    <g transform="translate(94.568521 47.646924) scale(0.14 -0.14)">
     <defs>
      <path id="CMR17-2b" d="M 2413 1472 
L 4109 1472 
C 4198 1472 4307 1472 4307 1580 
C 4307 1695 4205 1695 4109 1695 
L 2413 1695 
L 2413 3386 
C 2413 3475 2413 3584 2304 3584 
C 2189 3584 2189 3482 2189 3386 
L 2189 1695 
L 493 1695 
C 403 1695 294 1695 294 1587 
C 294 1472 397 1472 493 1472 
L 2189 1472 
L 2189 -218 
C 2189 -307 2189 -416 2298 -416 
C 2413 -416 2413 -314 2413 -218 
L 2413 1472 
z
" transform="scale(0.015625)"/>
      <path id="CMMI12-1c" d="M 1837 2408 
L 2899 2408 
C 2982 2408 3194 2408 3194 2612 
C 3194 2752 3072 2752 2957 2752 
L 1197 2752 
C 1050 2752 832 2752 538 2440 
C 371 2255 166 1917 166 1879 
C 166 1841 198 1828 237 1828 
C 282 1828 288 1847 320 1885 
C 653 2408 986 2408 1146 2408 
L 1677 2408 
L 1011 223 
C 979 127 979 114 979 95 
C 979 25 1024 -64 1152 -64 
C 1350 -64 1382 108 1402 203 
L 1837 2408 
z
" transform="scale(0.015625)"/>
     </defs>
     <use xlink:href="#CMMI12-79" transform="scale(0.996264)"/>
     <use xlink:href="#CMR17-28" transform="translate(51.138781 0) scale(0.996264)"/>
     <use xlink:href="#CMMI12-74" transform="translate(86.419549 0) scale(0.996264)"/>
     <use xlink:href="#CMR17-2b" transform="translate(143.785086 0) scale(0.996264)"/>
     <use xlink:href="#CMMI12-1c" transform="translate(237.639081 0) scale(0.996264)"/>
     <use xlink:href="#CMR17-29" transform="translate(291.130246 0) scale(0.996264)"/>
    </g>
   </g>
   <g id="patch_4">
    <path d="M 118.080925 120.907502 
Q 96.894423 142.094004 75.707921 163.280506 
L 77.829241 165.401826 
Q 72.526116 167.169418 67.22299 168.93701 
Q 68.990582 163.633884 70.758174 158.330759 
L 72.879494 160.452079 
Q 94.065996 139.265577 115.252498 118.079075 
L 118.080925 120.907502 
z
" style="fill: #dd1c77; stroke: #000000; stroke-linecap: round"/>
   </g>
   <g id="text_3">
    <!-- $y(t+2\tau)$ -->
    <g transform="translate(38.884943 173.836257) scale(0.14 -0.14)">
     <defs>
      <path id="CMR17-32" d="M 2669 989 
L 2554 989 
C 2490 536 2438 459 2413 420 
C 2381 369 1920 369 1830 369 
L 602 369 
C 832 619 1280 1072 1824 1597 
C 2214 1967 2669 2402 2669 3035 
C 2669 3790 2067 4224 1395 4224 
C 691 4224 262 3604 262 3030 
C 262 2780 448 2748 525 2748 
C 589 2748 781 2787 781 3010 
C 781 3207 614 3264 525 3264 
C 486 3264 448 3258 422 3245 
C 544 3790 915 4058 1306 4058 
C 1862 4058 2227 3617 2227 3035 
C 2227 2479 1901 2000 1536 1584 
L 262 146 
L 262 0 
L 2515 0 
L 2669 989 
z
" transform="scale(0.015625)"/>
     </defs>
     <use xlink:href="#CMMI12-79" transform="scale(0.996264)"/>
     <use xlink:href="#CMR17-28" transform="translate(51.138781 0) scale(0.996264)"/>
     <use xlink:href="#CMMI12-74" transform="translate(86.419549 0) scale(0.996264)"/>
     <use xlink:href="#CMR17-2b" transform="translate(143.785086 0) scale(0.996264)"/>
     <use xlink:href="#CMR17-32" transform="translate(237.639081 0) scale(0.996264)"/>
     <use xlink:href="#CMMI12-1c" transform="translate(283.329558 0) scale(0.996264)"/>
     <use xlink:href="#CMR17-29" transform="translate(336.820724 0) scale(0.996264)"/>
    </g>
   </g>
   <g id="PathCollection_1">
    <g clip-path="url(#p17076ca04c)">
     <use xlink:href="#mc95b670e94" x="100.360432" y="87.388808" style="stroke: #000000"/>
    </g>
   </g>
   <g id="PathCollection_2">
    <g clip-path="url(#p17076ca04c)">
     <use xlink:href="#mc95b670e94" x="122.418368" y="64.21189" style="stroke: #000000"/>
    </g>
   </g>
   <g id="PathCollection_3">
    <g clip-path="url(#p17076ca04c)">
     <use xlink:href="#mc95b670e94" x="143.41412" y="54.223765" style="stroke: #000000"/>
    </g>
   </g>
   <g id="PathCollection_4">
    <g clip-path="url(#p17076ca04c)">
     <use xlink:href="#mc95b670e94" x="158.207197" y="59.869872" style="stroke: #000000"/>
    </g>
   </g>
   <g id="PathCollection_5">
    <g clip-path="url(#p17076ca04c)">
     <use xlink:href="#mc95b670e94" x="163.175735" y="79.767849" style="stroke: #000000"/>
    </g>
   </g>
   <g id="PathCollection_6">
    <g clip-path="url(#p17076ca04c)">
     <use xlink:href="#mc95b670e94" x="157.103265" y="109.045977" style="stroke: #000000"/>
    </g>
   </g>
   <g id="PathCollection_7">
    <g clip-path="url(#p17076ca04c)">
     <use xlink:href="#mc95b670e94" x="141.476539" y="140.535949" style="stroke: #000000"/>
    </g>
   </g>
   <g id="PathCollection_8">
    <g clip-path="url(#p17076ca04c)">
     <use xlink:href="#mc95b670e94" x="120.121524" y="166.527921" style="stroke: #000000"/>
    </g>
   </g>
   <g id="PathCollection_9">
    <g clip-path="url(#p17076ca04c)">
     <use xlink:href="#mc95b670e94" x="98.266673" y="180.658152" style="stroke: #000000"/>
    </g>
   </g>
   <g id="PathCollection_10">
    <g clip-path="url(#p17076ca04c)">
     <use xlink:href="#mc95b670e94" x="81.262815" y="179.46707" style="stroke: #000000"/>
    </g>
   </g>
   <g id="PathCollection_11">
    <g clip-path="url(#p17076ca04c)">
     <use xlink:href="#mc95b670e94" x="73.273088" y="163.246291" style="stroke: #000000"/>
    </g>
   </g>
   <g id="PathCollection_12">
    <g clip-path="url(#p17076ca04c)">
     <use xlink:href="#mc95b670e94" x="76.253656" y="135.96723" style="stroke: #000000"/>
    </g>
   </g>
   <g id="PathCollection_13">
    <g clip-path="url(#p17076ca04c)">
     <use xlink:href="#mc95b670e94" x="89.474772" y="104.30875" style="stroke: #000000"/>
    </g>
   </g>
   <g id="PathCollection_14">
    <g clip-path="url(#p17076ca04c)">
     <use xlink:href="#mc95b670e94" x="109.699445" y="76.021953" style="stroke: #000000"/>
    </g>
   </g>
   <g id="PathCollection_15">
    <g clip-path="url(#p17076ca04c)">
     <use xlink:href="#mc95b670e94" x="131.97597" y="58.032433" style="stroke: #000000"/>
    </g>
   </g>
   <g id="PathCollection_16">
    <g clip-path="url(#p17076ca04c)">
     <use xlink:href="#mc95b670e94" x="150.850277" y="54.744651" style="stroke: #000000"/>
    </g>
   </g>
   <g id="PathCollection_17">
    <g clip-path="url(#p17076ca04c)">
     <use xlink:href="#mc95b670e94" x="161.701278" y="66.963572" style="stroke: #000000"/>
    </g>
   </g>
   <g id="PathCollection_18">
    <g clip-path="url(#p17076ca04c)">
     <use xlink:href="#mc95b670e94" x="161.872268" y="91.697577" style="stroke: #000000"/>
    </g>
   </g>
   <g id="PathCollection_19">
    <g clip-path="url(#p17076ca04c)">
     <use xlink:href="#mc95b670e94" x="151.321384" y="122.890919" style="stroke: #000000"/>
    </g>
   </g>
   <g id="PathCollection_20">
    <g clip-path="url(#p17076ca04c)">
     <use xlink:href="#mc95b670e94" x="132.631849" y="152.906381" style="stroke: #000000"/>
    </g>
   </g>
   <g id="PathCollection_21">
    <g clip-path="url(#p17076ca04c)">
     <use xlink:href="#mc95b670e94" x="110.379515" y="174.39513" style="stroke: #000000"/>
    </g>
   </g>
   <g id="PathCollection_22">
    <g clip-path="url(#p17076ca04c)">
     <use xlink:href="#mc95b670e94" x="90.012527" y="182.095971" style="stroke: #000000"/>
    </g>
   </g>
   <g id="PathCollection_23">
    <g clip-path="url(#p17076ca04c)">
     <use xlink:href="#mc95b670e94" x="76.517436" y="174.12347" style="stroke: #000000"/>
    </g>
   </g>
   <g id="PathCollection_24">
    <g clip-path="url(#p17076ca04c)">
     <use xlink:href="#mc95b670e94" x="73.19831" y="152.429573" style="stroke: #000000"/>
    </g>
   </g>
   <g id="PathCollection_25">
    <g clip-path="url(#p17076ca04c)">
     <use xlink:href="#mc95b670e94" x="80.867787" y="122.325702" style="stroke: #000000"/>
    </g>
   </g>
   <g id="PathCollection_26">
    <g clip-path="url(#p17076ca04c)">
     <use xlink:href="#mc95b670e94" x="97.648112" y="91.182336" style="stroke: #000000"/>
    </g>
   </g>
   <g id="PathCollection_27">
    <g clip-path="url(#p17076ca04c)">
     <use xlink:href="#mc95b670e94" x="119.430875" y="66.624456" style="stroke: #000000"/>
    </g>
   </g>
   <g id="PathCollection_28">
    <g clip-path="url(#p17076ca04c)">
     <use xlink:href="#mc95b670e94" x="140.882897" y="54.664687" style="stroke: #000000"/>
    </g>
   </g>
  </g>
 </g>
 <defs>
  <clipPath id="p17076ca04c">
   <rect x="7.2" y="7.2" width="221.76" height="221.76"/>
  </clipPath>
 </defs>
</svg>
