<?xml version="1.0" encoding="utf-8" standalone="no"?>
<!DOCTYPE svg PUBLIC "-//W3C//DTD SVG 1.1//EN"
  "http://www.w3.org/Graphics/SVG/1.1/DTD/svg11.dtd">
<svg xmlns:xlink="http://www.w3.org/1999/xlink" width="144.39984pt" height="144.39984pt" viewBox="0 0 144.39984 144.39984" xmlns="http://www.w3.org/2000/svg" version="1.1">
 <metadata>
  <rdf:RDF xmlns:dc="http://purl.org/dc/elements/1.1/" xmlns:cc="http://creativecommons.org/ns#" xmlns:rdf="http://www.w3.org/1999/02/22-rdf-syntax-ns#">
   <cc:Work>
    <dc:type rdf:resource="http://purl.org/dc/dcmitype/StillImage"/>
    <dc:date>2024-01-24T15:38:16.133392</dc:date>
    <dc:format>image/svg+xml</dc:format>
    <dc:creator>
     <cc:Agent>
      <dc:title>Matplotlib v3.8.2, https://matplotlib.org/</dc:title>
     </cc:Agent>
    </dc:creator>
   </cc:Work>
  </rdf:RDF>
 </metadata>
 <defs>
  <style type="text/css">*{stroke-linejoin: round; stroke-linecap: butt}</style>
 </defs>
 <g id="figure_1">
  <g id="patch_1">
   <path d="M 0 144.39984 
L 144.39984 144.39984 
L 144.39984 0 
L 0 0 
z
" style="fill: #ffffff"/>
  </g>
  <g id="patch_2">
   <path d="M 7.2 137.19984 
L 137.19984 137.19984 
L 137.19984 7.2 
L 7.2 7.2 
z
" style="fill: #ffffff"/>
  </g>
  <g id="axes_1">
   <g id="patch_3">
    <path d="M 75.341407 71.633182 
Q 84.014257 74.151319 92.687107 76.669457 
L 93.314479 74.508692 
Q 96.391748 77.354602 99.469017 80.200513 
Q 95.346128 80.955877 91.223239 81.711241 
L 91.850611 79.550477 
Q 83.177761 77.032339 74.504911 74.514202 
L 75.341407 71.633182 
z
" clip-path="url(#pf23bc6f590)" style="fill: #dd1c77; stroke: #000000; stroke-linecap: round"/>
   </g>
   <g id="Path3DCollection_1">
    <defs>
     <path id="m7a055b6e85" d="M 0 2.5 
C 0.663008 2.5 1.29895 2.236584 1.767767 1.767767 
C 2.236584 1.29895 2.5 0.663008 2.5 0 
C 2.5 -0.663008 2.236584 -1.29895 1.767767 -1.767767 
C 1.29895 -2.236584 0.663008 -2.5 0 -2.5 
C -0.663008 -2.5 -1.29895 -2.236584 -1.767767 -1.767767 
C -2.236584 -1.29895 -2.5 -0.663008 -2.5 0 
C -2.5 0.663008 -2.236584 1.29895 -1.767767 1.767767 
C -1.29895 2.236584 -0.663008 2.5 0 2.5 
z
" style="stroke: #000000"/>
    </defs>
    <g clip-path="url(#pf23bc6f590)">
     <use xlink:href="#m7a055b6e85" x="72.999641" y="72.515204" style="stroke: #000000"/>
    </g>
   </g>
   <g id="text_1">
    <!-- $y(t)$ -->
    <g transform="translate(104.105494 82.685911) scale(0.1 -0.1)">
     <defs>
      <path id="CMMI12-79" d="M 1683 -700 
C 1510 -939 1261 -1152 947 -1152 
C 870 -1152 563 -1152 467 -889 
C 486 -895 518 -895 531 -895 
C 723 -895 851 -729 851 -582 
C 851 -435 730 -384 634 -384 
C 531 -384 307 -458 307 -759 
C 307 -1071 582 -1286 947 -1286 
C 1587 -1286 2234 -700 2413 6 
L 3040 2485 
C 3046 2517 3059 2556 3059 2594 
C 3059 2689 2982 2753 2886 2753 
C 2829 2753 2694 2727 2643 2535 
L 2170 658 
C 2138 543 2138 530 2086 460 
C 1958 281 1747 64 1440 64 
C 1082 64 1050 415 1050 588 
C 1050 952 1222 1443 1395 1903 
C 1466 2088 1504 2178 1504 2305 
C 1504 2574 1312 2816 998 2816 
C 410 2816 173 1890 173 1839 
C 173 1814 198 1782 243 1782 
C 301 1782 307 1807 333 1897 
C 486 2433 730 2689 979 2689 
C 1037 2689 1146 2689 1146 2478 
C 1146 2312 1075 2127 979 1884 
C 666 1047 666 837 666 683 
C 666 77 1101 -64 1421 -64 
C 1606 -64 1837 -6 2061 230 
L 2067 224 
C 1971 -147 1907 -392 1683 -700 
z
" transform="scale(0.015625)"/>
      <path id="CMR17-28" d="M 1958 -1561 
C 1958 -1555 1958 -1542 1939 -1523 
C 1645 -1224 858 -407 858 1581 
C 858 3569 1632 4379 1946 4697 
C 1946 4704 1958 4717 1958 4736 
C 1958 4755 1939 4768 1914 4768 
C 1843 4768 1299 4296 986 3594 
C 666 2887 576 2199 576 1588 
C 576 1128 621 351 1005 -471 
C 1312 -1135 1837 -1600 1914 -1600 
C 1946 -1600 1958 -1587 1958 -1561 
z
" transform="scale(0.015625)"/>
      <path id="CMMI12-74" d="M 1286 2566 
L 1875 2566 
C 1997 2566 2061 2566 2061 2681 
C 2061 2752 2022 2752 1894 2752 
L 1331 2752 
L 1568 3692 
C 1594 3781 1594 3794 1594 3840 
C 1594 3943 1510 4000 1427 4000 
C 1376 4000 1229 3981 1178 3775 
L 928 2752 
L 326 2752 
C 198 2752 141 2752 141 2630 
C 141 2566 186 2566 307 2566 
L 877 2566 
L 454 881 
C 403 658 384 594 384 511 
C 384 211 595 -64 954 -64 
C 1600 -64 1946 868 1946 912 
C 1946 951 1920 970 1882 970 
C 1869 970 1843 970 1830 944 
C 1824 938 1818 931 1773 829 
C 1638 511 1344 64 973 64 
C 781 64 768 224 768 364 
C 768 370 768 492 787 568 
L 1286 2566 
z
" transform="scale(0.015625)"/>
      <path id="CMR17-29" d="M 1683 1581 
C 1683 2040 1638 2817 1254 3639 
C 947 4303 422 4768 346 4768 
C 326 4768 301 4761 301 4729 
C 301 4717 307 4710 314 4697 
C 621 4378 1402 3568 1402 1584 
C 1402 -407 627 -1217 314 -1537 
C 307 -1549 301 -1556 301 -1568 
C 301 -1600 326 -1600 346 -1600 
C 416 -1600 960 -1128 1274 -426 
C 1594 281 1683 969 1683 1581 
z
" transform="scale(0.015625)"/>
     </defs>
     <use xlink:href="#CMMI12-79" transform="scale(0.996264)"/>
     <use xlink:href="#CMR17-28" transform="translate(51.138781 0) scale(0.996264)"/>
     <use xlink:href="#CMMI12-74" transform="translate(86.419549 0) scale(0.996264)"/>
     <use xlink:href="#CMR17-29" transform="translate(121.645879 0) scale(0.996264)"/>
    </g>
   </g>
   <g id="text_2">
    <!-- $y(t+\tau)$ -->
    <g transform="translate(40.084887 98.379399) scale(0.1 -0.1)">
     <defs>
      <path id="CMR17-2b" d="M 2413 1472 
L 4109 1472 
C 4198 1472 4307 1472 4307 1580 
C 4307 1695 4205 1695 4109 1695 
L 2413 1695 
L 2413 3386 
C 2413 3475 2413 3584 2304 3584 
C 2189 3584 2189 3482 2189 3386 
L 2189 1695 
L 493 1695 
C 403 1695 294 1695 294 1587 
C 294 1472 397 1472 493 1472 
L 2189 1472 
L 2189 -218 
C 2189 -307 2189 -416 2298 -416 
C 2413 -416 2413 -314 2413 -218 
L 2413 1472 
z
" transform="scale(0.015625)"/>
      <path id="CMMI12-1c" d="M 1837 2408 
L 2899 2408 
C 2982 2408 3194 2408 3194 2612 
C 3194 2752 3072 2752 2957 2752 
L 1197 2752 
C 1050 2752 832 2752 538 2440 
C 371 2255 166 1917 166 1879 
C 166 1841 198 1828 237 1828 
C 282 1828 288 1847 320 1885 
C 653 2408 986 2408 1146 2408 
L 1677 2408 
L 1011 223 
C 979 127 979 114 979 95 
C 979 25 1024 -64 1152 -64 
C 1350 -64 1382 108 1402 203 
L 1837 2408 
z
" transform="scale(0.015625)"/>
     </defs>
     <use xlink:href="#CMMI12-79" transform="scale(0.996264)"/>
     <use xlink:href="#CMR17-28" transform="translate(51.138781 0) scale(0.996264)"/>
     <use xlink:href="#CMMI12-74" transform="translate(86.419549 0) scale(0.996264)"/>
     <use xlink:href="#CMR17-2b" transform="translate(143.785086 0) scale(0.996264)"/>
     <use xlink:href="#CMMI12-1c" transform="translate(237.639081 0) scale(0.996264)"/>
     <use xlink:href="#CMR17-29" transform="translate(291.130246 0) scale(0.996264)"/>
    </g>
   </g>
   <g id="text_3">
    <!-- $y(t+2\tau)$ -->
    <g transform="translate(57.317164 43.059743) scale(0.1 -0.1)">
     <defs>
      <path id="CMR17-32" d="M 2669 989 
L 2554 989 
C 2490 536 2438 459 2413 420 
C 2381 369 1920 369 1830 369 
L 602 369 
C 832 619 1280 1072 1824 1597 
C 2214 1967 2669 2402 2669 3035 
C 2669 3790 2067 4224 1395 4224 
C 691 4224 262 3604 262 3030 
C 262 2780 448 2748 525 2748 
C 589 2748 781 2787 781 3010 
C 781 3207 614 3264 525 3264 
C 486 3264 448 3258 422 3245 
C 544 3790 915 4058 1306 4058 
C 1862 4058 2227 3617 2227 3035 
C 2227 2479 1901 2000 1536 1584 
L 262 146 
L 262 0 
L 2515 0 
L 2669 989 
z
" transform="scale(0.015625)"/>
     </defs>
     <use xlink:href="#CMMI12-79" transform="scale(0.996264)"/>
     <use xlink:href="#CMR17-28" transform="translate(51.138781 0) scale(0.996264)"/>
     <use xlink:href="#CMMI12-74" transform="translate(86.419549 0) scale(0.996264)"/>
     <use xlink:href="#CMR17-2b" transform="translate(143.785086 0) scale(0.996264)"/>
     <use xlink:href="#CMR17-32" transform="translate(237.639081 0) scale(0.996264)"/>
     <use xlink:href="#CMMI12-1c" transform="translate(283.329558 0) scale(0.996264)"/>
     <use xlink:href="#CMR17-29" transform="translate(336.820724 0) scale(0.996264)"/>
    </g>
   </g>
   <g id="patch_4">
    <path d="M 71.498065 70.515061 
Q 71.492616 63.596334 71.487166 56.677607 
L 69.237167 56.679379 
Q 71.109213 52.928794 72.98126 49.178208 
Q 74.859212 52.92584 76.737164 56.673472 
L 74.487165 56.675244 
Q 74.492615 63.593971 74.498064 70.512698 
L 71.498065 70.515061 
z
" clip-path="url(#pf23bc6f590)" style="fill: #807fff; stroke: #000000; stroke-linecap: round"/>
   </g>
   <g id="patch_5">
    <path d="M 72.472345 74.960168 
Q 66.81604 79.873652 61.159735 84.787136 
L 62.635275 86.485748 
Q 58.573879 87.530131 54.512484 88.574513 
Q 56.114646 84.699111 57.716809 80.823708 
L 59.192349 82.52232 
Q 64.848654 77.608836 70.504959 72.695352 
L 72.472345 74.960168 
z
" clip-path="url(#pf23bc6f590)" style="fill: #00ffff; stroke: #000000; stroke-linecap: round"/>
   </g>
  </g>
 </g>
 <defs>
  <clipPath id="pf23bc6f590">
   <rect x="7.2" y="7.2" width="129.99984" height="129.99984"/>
  </clipPath>
 </defs>
</svg>
